<svg width="411" height="34" fill="none" xmlns="http://www.w3.org/2000/svg"><g clip-path="url('#clip0_1_370')"><g clip-path="url('#clip1_1_370')" fill="#221F1F"><path d="M0 5.229h3.527v20.378H0V5.23ZM9.558 25.026a7.176 7.176 0 0 1-2.645-2.676c-.653-1.133-.976-2.379-.976-3.735 0-1.36.327-2.602.976-3.735a7.204 7.204 0 0 1 2.645-2.676 7.061 7.061 0 0 1 3.62-.977c1.302 0 2.507.327 3.621.977a7.178 7.178 0 0 1 2.646 2.676c.649 1.132.975 2.379.975 3.735 0 1.36-.326 2.602-.975 3.735a7.227 7.227 0 0 1-2.646 2.676 7.061 7.061 0 0 1-3.62.977 7.08 7.08 0 0 1-3.62-.977Zm5.478-2.974a3.683 3.683 0 0 0 1.35-1.4c.337-.604.507-1.284.507-2.037 0-.754-.17-1.434-.507-2.036a3.681 3.681 0 0 0-1.35-1.4 3.593 3.593 0 0 0-1.857-.497c-.677 0-1.295.165-1.857.496-.563.33-1.01.798-1.35 1.4-.341.603-.508 1.283-.508 2.037s.17 1.434.507 2.036c.337.603.788 1.07 1.35 1.4.563.332 1.18.497 1.858.497.677 0 1.295-.165 1.857-.496ZM22.83 5.229h3.527v12.14l4.596-5.745h4.197l-5.186 6.48 5.56 7.5H31.01l-4.652-6.48v6.48H22.83V5.229ZM38.85 25.095c-.989-.603-1.79-1.466-2.405-2.588-.615-1.12-.923-2.418-.923-3.892 0-1.338.295-2.577.881-3.71.587-1.131 1.389-2.028 2.406-2.69a5.996 5.996 0 0 1 3.34-.992c.853 0 1.634.15 2.339.452.705.301 1.243.705 1.618 1.216V11.62h3.527v13.982h-3.527v-1.271a6.107 6.107 0 0 1-1.764 1.246c-.621.283-1.426.426-2.405.426-1.07-.003-2.097-.305-3.087-.908Zm6.43-3.68c.659-.753.989-1.686.989-2.8 0-1.114-.33-2.048-.99-2.801-.66-.754-1.534-1.132-2.62-1.132-1.087 0-1.962.378-2.621 1.132-.66.753-.99 1.69-.99 2.8 0 1.114.33 2.048.99 2.802.66.753 1.53 1.132 2.62 1.132 1.087 0 1.962-.379 2.621-1.132ZM52.736 5.229h3.527v20.378h-3.527V5.23ZM59.55 9.017c-.427-.452-.642-1-.642-1.643 0-.661.215-1.22.642-1.683.427-.463.945-.695 1.552-.695.625 0 1.153.232 1.59.695.437.463.656 1.025.656 1.683 0 .644-.219 1.188-.656 1.643-.437.453-.968.68-1.59.68-.607 0-1.121-.224-1.552-.68Zm-.187 2.607h3.527v13.982h-3.527V11.625ZM65.299 24.643l.802-3.51h.16c1.159.945 2.343 1.415 3.554 1.415.5 0 .903-.1 1.215-.298a.96.96 0 0 0 .469-.863c0-.398-.184-.717-.549-.963-.364-.247-1.048-.548-2.044-.905-1.018-.356-1.806-.878-2.364-1.558-.56-.68-.844-1.482-.844-2.404 0-1.302.458-2.35 1.378-3.143.917-.794 2.08-1.187 3.489-1.187.712 0 1.347.07 1.899.213a5.353 5.353 0 0 1 1.576.694l.132 3.566h-.188c-.642-.434-1.211-.76-1.711-.978a4.181 4.181 0 0 0-1.684-.327c-.444 0-.812.096-1.097.283-.284.188-.427.434-.427.735 0 .397.177.72.535.978.357.254 1.024.563 2.006.919 1.122.397 1.972.879 2.552 1.445.58.566.868 1.444.868 2.632 0 .981-.233 1.82-.695 2.517a4.342 4.342 0 0 1-1.83 1.57c-.756.35-1.589.522-2.499.522-1.836.004-3.405-.448-4.703-1.353ZM80.002 25.01a7.122 7.122 0 0 1-2.607-2.7c-.632-1.144-.948-2.412-.948-3.809 0-1.36.299-2.591.896-3.694a6.766 6.766 0 0 1 2.485-2.617c1.06-.64 2.26-.963 3.597-.963 1.353 0 2.527.334 3.513 1.003.99.67 1.735 1.562 2.246 2.676a8.579 8.579 0 0 1 .763 3.595v1.103H79.818c.215 1.058.673 1.86 1.378 2.404.705.547 1.635.82 2.794.82 1.764 0 3.305-.614 4.624-1.838h.375l-.132 3.536a9.69 9.69 0 0 1-2.54 1.102 9.623 9.623 0 0 1-2.566.368c-1.399.004-2.645-.323-3.75-.985Zm6.415-7.954c-.09-.849-.424-1.514-1.003-1.996-.58-.481-1.288-.72-2.125-.72-.819 0-1.538.232-2.152.695-.614.463-1.027 1.136-1.243 2.025h6.523v-.004Z"/></g></g><path d="M105.152 7.42h1.044v7.728h3.924V16h-4.968V7.42Zm8.989 7.86c.312 0 .596-.056.852-.168a1.76 1.76 0 0 0 .648-.48c.176-.208.312-.456.408-.744.096-.296.144-.62.144-.972v-.084c0-.36-.048-.688-.144-.984a2.104 2.104 0 0 0-.42-.756 1.76 1.76 0 0 0-.648-.48 2.02 2.02 0 0 0-.84-.168c-.312 0-.596.056-.852.168a1.76 1.76 0 0 0-.648.48c-.176.208-.312.46-.408.756a3.064 3.064 0 0 0-.144.972v.096c0 .72.18 1.296.54 1.728.368.424.872.636 1.512.636Zm-.012.828c-.448 0-.86-.08-1.236-.24-.376-.16-.7-.38-.972-.66a3.1 3.1 0 0 1-.636-1.02 3.488 3.488 0 0 1-.228-1.272v-.096c0-.472.076-.904.228-1.296a3.12 3.12 0 0 1 .648-1.008c.272-.288.596-.508.972-.66.376-.16.788-.24 1.236-.24.44 0 .848.08 1.224.24.384.152.712.368.984.648s.484.616.636 1.008c.16.392.24.824.24 1.296v.096c0 .472-.08.908-.24 1.308a2.876 2.876 0 0 1-.648 1.008c-.272.28-.596.5-.972.66a3.268 3.268 0 0 1-1.236.228Zm7.395 0c-.44 0-.848-.072-1.224-.216a3.054 3.054 0 0 1-.972-.636 3.12 3.12 0 0 1-.648-1.008 3.626 3.626 0 0 1-.228-1.32v-.096c0-.48.08-.916.24-1.308.16-.4.376-.74.648-1.02.28-.28.604-.496.972-.648.368-.16.764-.24 1.188-.24.328 0 .644.04.948.12.312.08.588.208.828.384.248.168.456.392.624.672.168.28.276.62.324 1.02h-.984c-.08-.496-.284-.848-.612-1.056-.32-.208-.696-.312-1.128-.312a1.93 1.93 0 0 0-.804.168c-.24.112-.452.272-.636.48a2.23 2.23 0 0 0-.42.744 2.991 2.991 0 0 0-.156.996v.096c0 .776.188 1.364.564 1.764.384.392.88.588 1.488.588.224 0 .436-.032.636-.096a1.651 1.651 0 0 0 .96-.768c.112-.192.18-.416.204-.672h.924a2.595 2.595 0 0 1-.276.948 2.386 2.386 0 0 1-.576.744c-.24.208-.52.372-.84.492-.32.12-.668.18-1.044.18Zm5.952 0c-.288 0-.56-.036-.816-.108a1.896 1.896 0 0 1-.672-.336 1.685 1.685 0 0 1-.444-.576 2.012 2.012 0 0 1-.156-.828c0-.36.088-.664.264-.912.176-.248.408-.448.696-.6.296-.152.632-.26 1.008-.324a6.368 6.368 0 0 1 1.176-.108h.9v-.456c0-.504-.104-.864-.312-1.08-.208-.224-.552-.336-1.032-.336-.864 0-1.344.376-1.44 1.128h-.996c.032-.36.12-.664.264-.912.152-.248.34-.448.564-.6.232-.16.488-.272.768-.336a3.647 3.647 0 0 1 1.752 0c.28.064.524.184.732.36.208.168.376.396.504.684.128.288.192.652.192 1.092V16h-.996v-.792c-.232.296-.5.52-.804.672-.304.152-.688.228-1.152.228Zm.096-.792c.264 0 .508-.032.732-.096a1.77 1.77 0 0 0 .588-.3c.168-.128.3-.284.396-.468.096-.192.144-.408.144-.648v-.78h-.864c-.312 0-.604.024-.876.072-.264.04-.496.108-.696.204a1.197 1.197 0 0 0-.456.384.998.998 0 0 0-.156.576c0 .328.088.588.264.78.176.184.484.276.924.276Zm4.977-8.592h1.008V16h-1.008V6.724Zm3.211 3h.996V16h-.996V9.724Zm.48-1.308a.637.637 0 0 1-.468-.192.637.637 0 0 1-.192-.468c0-.184.064-.34.192-.468a.637.637 0 0 1 .468-.192c.184 0 .34.064.468.192a.637.637 0 0 1 .192.468c0 .184-.064.34-.192.468a.637.637 0 0 1-.468.192Zm1.939 7.44 3.708-5.292h-3.348v-.84h4.884v.18l-3.624 5.22h3.576V16h-5.196v-.144Zm8.328.252c-.288 0-.56-.036-.816-.108a1.896 1.896 0 0 1-.672-.336 1.685 1.685 0 0 1-.444-.576 2.012 2.012 0 0 1-.156-.828c0-.36.088-.664.264-.912.176-.248.408-.448.696-.6.296-.152.632-.26 1.008-.324a6.368 6.368 0 0 1 1.176-.108h.9v-.456c0-.504-.104-.864-.312-1.08-.208-.224-.552-.336-1.032-.336-.864 0-1.344.376-1.44 1.128h-.996c.032-.36.12-.664.264-.912.152-.248.34-.448.564-.6.232-.16.488-.272.768-.336a3.647 3.647 0 0 1 1.752 0c.28.064.524.184.732.36.208.168.376.396.504.684.128.288.192.652.192 1.092V16h-.996v-.792c-.232.296-.5.52-.804.672-.304.152-.688.228-1.152.228Zm.096-.792c.264 0 .508-.032.732-.096a1.77 1.77 0 0 0 .588-.3c.168-.128.3-.284.396-.468.096-.192.144-.408.144-.648v-.78h-.864c-.312 0-.604.024-.876.072-.264.04-.496.108-.696.204a1.197 1.197 0 0 0-.456.384.998.998 0 0 0-.156.576c0 .328.088.588.264.78.176.184.484.276.924.276Zm6.862.768c-.576 0-1.004-.152-1.284-.456-.272-.304-.408-.704-.408-1.2v-3.864h-.9v-.84h.9V8.296h.996v1.428h1.464v.84h-1.464v3.768c0 .608.26.912.78.912a2.163 2.163 0 0 0 .768-.132v.84c-.104.04-.22.072-.348.096a2.839 2.839 0 0 1-.504.036Zm2.522-6.36h.996V16h-.996V9.724Zm.48-1.308a.637.637 0 0 1-.468-.192.637.637 0 0 1-.192-.468c0-.184.064-.34.192-.468a.637.637 0 0 1 .468-.192c.184 0 .34.064.468.192a.637.637 0 0 1 .192.468c0 .184-.064.34-.192.468a.637.637 0 0 1-.468.192Zm5.311 6.864c.312 0 .596-.056.852-.168a1.76 1.76 0 0 0 .648-.48c.176-.208.312-.456.408-.744.096-.296.144-.62.144-.972v-.084c0-.36-.048-.688-.144-.984a2.104 2.104 0 0 0-.42-.756 1.76 1.76 0 0 0-.648-.48 2.02 2.02 0 0 0-.84-.168c-.312 0-.596.056-.852.168a1.76 1.76 0 0 0-.648.48c-.176.208-.312.46-.408.756a3.064 3.064 0 0 0-.144.972v.096c0 .72.18 1.296.54 1.728.368.424.872.636 1.512.636Zm-.012.828c-.448 0-.86-.08-1.236-.24-.376-.16-.7-.38-.972-.66a3.1 3.1 0 0 1-.636-1.02 3.488 3.488 0 0 1-.228-1.272v-.096c0-.472.076-.904.228-1.296a3.12 3.12 0 0 1 .648-1.008c.272-.288.596-.508.972-.66.376-.16.788-.24 1.236-.24.44 0 .848.08 1.224.24.384.152.712.368.984.648s.484.616.636 1.008c.16.392.24.824.24 1.296v.096c0 .472-.08.908-.24 1.308a2.876 2.876 0 0 1-.648 1.008c-.272.28-.596.5-.972.66a3.268 3.268 0 0 1-1.236.228Zm4.791-6.384h.996v.996c.144-.296.384-.552.72-.768.344-.224.776-.336 1.296-.336.32 0 .616.048.888.144.272.088.504.236.696.444.2.2.352.46.456.78.112.32.168.708.168 1.164V16h-.996v-3.924c0-.552-.12-.956-.36-1.212s-.612-.384-1.116-.384c-.232 0-.456.036-.672.108-.208.072-.392.18-.552.324-.16.144-.288.324-.384.54a1.815 1.815 0 0 0-.144.744V16h-.996V9.724Zm9.828 0h1.08l1.464 5.052 1.524-5.052h.864l1.428 5.052 1.476-5.052h1.02L183.285 16h-1.104l-1.308-4.704L179.409 16h-1.092l-1.932-6.276Zm12.838 5.556c.312 0 .596-.056.852-.168a1.76 1.76 0 0 0 .648-.48c.176-.208.312-.456.408-.744.096-.296.144-.62.144-.972v-.084c0-.36-.048-.688-.144-.984a2.104 2.104 0 0 0-.42-.756 1.76 1.76 0 0 0-.648-.48 2.02 2.02 0 0 0-.84-.168c-.312 0-.596.056-.852.168a1.76 1.76 0 0 0-.648.48c-.176.208-.312.46-.408.756a3.064 3.064 0 0 0-.144.972v.096c0 .72.18 1.296.54 1.728.368.424.872.636 1.512.636Zm-.012.828c-.448 0-.86-.08-1.236-.24-.376-.16-.7-.38-.972-.66a3.1 3.1 0 0 1-.636-1.02 3.488 3.488 0 0 1-.228-1.272v-.096c0-.472.076-.904.228-1.296a3.12 3.12 0 0 1 .648-1.008c.272-.288.596-.508.972-.66.376-.16.788-.24 1.236-.24.44 0 .848.08 1.224.24.384.152.712.368.984.648s.484.616.636 1.008c.16.392.24.824.24 1.296v.096c0 .472-.08.908-.24 1.308a2.876 2.876 0 0 1-.648 1.008c-.272.28-.596.5-.972.66a3.268 3.268 0 0 1-1.236.228Zm4.791-6.384h.996v1.128c.096-.176.204-.336.324-.48a1.96 1.96 0 0 1 .432-.384c.16-.112.348-.2.564-.264.216-.064.464-.1.744-.108v.936a4.461 4.461 0 0 0-.852.12 1.647 1.647 0 0 0-.66.324 1.472 1.472 0 0 0-.408.612c-.096.248-.144.564-.144.948V16h-.996V9.724Zm4.652-3h.996v5.892l2.604-2.892h1.164l-2.688 2.916 2.916 3.36h-1.212l-2.784-3.252V16h-.996V6.724Zm6.556 3.84h-.9v-.84h.9v-1.02c0-.64.152-1.136.456-1.488.304-.352.768-.528 1.392-.528.16 0 .288.008.384.024a.968.968 0 0 1 .3.072v.84a1.095 1.095 0 0 0-.288-.084 2.392 2.392 0 0 0-.36-.024c-.32 0-.548.1-.684.3-.136.2-.204.46-.204.78v1.128h1.536v.84h-1.536V16h-.996v-5.436Zm3.921-3.84h1.008V16h-1.008V6.724Zm5.803 8.556c.312 0 .596-.056.852-.168a1.76 1.76 0 0 0 .648-.48c.176-.208.312-.456.408-.744.096-.296.144-.62.144-.972v-.084c0-.36-.048-.688-.144-.984a2.104 2.104 0 0 0-.42-.756 1.76 1.76 0 0 0-.648-.48 2.02 2.02 0 0 0-.84-.168c-.312 0-.596.056-.852.168a1.76 1.76 0 0 0-.648.48c-.176.208-.312.46-.408.756a3.064 3.064 0 0 0-.144.972v.096c0 .72.18 1.296.54 1.728.368.424.872.636 1.512.636Zm-.012.828c-.448 0-.86-.08-1.236-.24-.376-.16-.7-.38-.972-.66a3.1 3.1 0 0 1-.636-1.02 3.488 3.488 0 0 1-.228-1.272v-.096c0-.472.076-.904.228-1.296a3.12 3.12 0 0 1 .648-1.008c.272-.288.596-.508.972-.66.376-.16.788-.24 1.236-.24.44 0 .848.08 1.224.24.384.152.712.368.984.648s.484.616.636 1.008c.16.392.24.824.24 1.296v.096c0 .472-.08.908-.24 1.308a2.876 2.876 0 0 1-.648 1.008c-.272.28-.596.5-.972.66a3.268 3.268 0 0 1-1.236.228Zm4.002-6.384h1.08l1.464 5.052 1.524-5.052h.864l1.428 5.052 1.476-5.052h1.02L225.824 16h-1.104l-1.308-4.704L221.948 16h-1.092l-1.932-6.276Zm13.731.84h-.9v-.84h.9v-1.02c0-.64.156-1.136.468-1.488.312-.352.78-.528 1.404-.528.16 0 .292.012.396.036.104.016.22.044.348.084v.84a1.422 1.422 0 0 0-.324-.096 1.956 1.956 0 0 0-.384-.036c-.328 0-.564.1-.708.3-.136.2-.204.46-.204.78v1.128h1.536v.84h-1.536V16h-.996v-5.436Zm6.396 4.716c.312 0 .596-.056.852-.168a1.76 1.76 0 0 0 .648-.48c.176-.208.312-.456.408-.744.096-.296.144-.62.144-.972v-.084c0-.36-.048-.688-.144-.984a2.104 2.104 0 0 0-.42-.756 1.76 1.76 0 0 0-.648-.48 2.02 2.02 0 0 0-.84-.168c-.312 0-.596.056-.852.168a1.76 1.76 0 0 0-.648.48c-.176.208-.312.46-.408.756a3.064 3.064 0 0 0-.144.972v.096c0 .72.18 1.296.54 1.728.368.424.872.636 1.512.636Zm-.012.828c-.448 0-.86-.08-1.236-.24-.376-.16-.7-.38-.972-.66a3.1 3.1 0 0 1-.636-1.02 3.488 3.488 0 0 1-.228-1.272v-.096c0-.472.076-.904.228-1.296a3.12 3.12 0 0 1 .648-1.008c.272-.288.596-.508.972-.66.376-.16.788-.24 1.236-.24.44 0 .848.08 1.224.24.384.152.712.368.984.648s.484.616.636 1.008c.16.392.24.824.24 1.296v.096c0 .472-.08.908-.24 1.308a2.876 2.876 0 0 1-.648 1.008c-.272.28-.596.5-.972.66a3.268 3.268 0 0 1-1.236.228Zm4.791-6.384h.996v1.128c.096-.176.204-.336.324-.48a1.96 1.96 0 0 1 .432-.384c.16-.112.348-.2.564-.264.216-.064.464-.1.744-.108v.936a4.461 4.461 0 0 0-.852.12 1.647 1.647 0 0 0-.66.324 1.472 1.472 0 0 0-.408.612c-.096.248-.144.564-.144.948V16h-.996V9.724Zm9.58 5.628-2.46-5.628h1.068l1.92 4.5 1.74-4.5h1.02l-3.468 8.46h-1.008l1.188-2.832Zm7.181-.072c.312 0 .596-.056.852-.168a1.76 1.76 0 0 0 .648-.48c.176-.208.312-.456.408-.744.096-.296.144-.62.144-.972v-.084c0-.36-.048-.688-.144-.984a2.104 2.104 0 0 0-.42-.756 1.76 1.76 0 0 0-.648-.48 2.02 2.02 0 0 0-.84-.168c-.312 0-.596.056-.852.168a1.76 1.76 0 0 0-.648.48c-.176.208-.312.46-.408.756a3.064 3.064 0 0 0-.144.972v.096c0 .72.18 1.296.54 1.728.368.424.872.636 1.512.636Zm-.012.828c-.448 0-.86-.08-1.236-.24-.376-.16-.7-.38-.972-.66a3.1 3.1 0 0 1-.636-1.02 3.488 3.488 0 0 1-.228-1.272v-.096c0-.472.076-.904.228-1.296a3.12 3.12 0 0 1 .648-1.008c.272-.288.596-.508.972-.66.376-.16.788-.24 1.236-.24.44 0 .848.08 1.224.24.384.152.712.368.984.648s.484.616.636 1.008c.16.392.24.824.24 1.296v.096c0 .472-.08.908-.24 1.308a2.876 2.876 0 0 1-.648 1.008c-.272.28-.596.5-.972.66a3.268 3.268 0 0 1-1.236.228Zm6.914 0a2.83 2.83 0 0 1-.876-.132 1.724 1.724 0 0 1-.684-.42 2.145 2.145 0 0 1-.456-.756c-.112-.304-.168-.672-.168-1.104V9.724h.996v3.924c0 .552.116.956.348 1.212.24.256.608.384 1.104.384.224 0 .44-.036.648-.108.208-.072.392-.18.552-.324.16-.144.288-.324.384-.54.096-.216.144-.464.144-.744V9.724h.996V16h-.996v-.996c-.144.296-.388.556-.732.78-.336.216-.756.324-1.26.324Zm5.153-6.384h.996v1.128c.096-.176.204-.336.324-.48a1.96 1.96 0 0 1 .432-.384c.16-.112.348-.2.564-.264.216-.064.464-.1.744-.108v.936a4.461 4.461 0 0 0-.852.12 1.647 1.647 0 0 0-.66.324 1.472 1.472 0 0 0-.408.612c-.096.248-.144.564-.144.948V16h-.996V9.724Zm7.157 0h1.08l1.464 5.052 1.524-5.052h.864l1.428 5.052 1.476-5.052h1.02L286.703 16h-1.104l-1.308-4.704L282.827 16h-1.092l-1.932-6.276Zm12.79 6.384c-.448 0-.856-.076-1.224-.228a2.916 2.916 0 0 1-.96-.636 2.966 2.966 0 0 1-.636-1.008 3.77 3.77 0 0 1-.216-1.308v-.096c0-.472.072-.904.216-1.296.144-.4.344-.74.6-1.02.264-.288.576-.508.936-.66.36-.16.756-.24 1.188-.24.36 0 .708.06 1.044.18.344.112.648.292.912.54.264.248.472.572.624.972.16.392.24.868.24 1.428v.324h-4.728c.024.72.204 1.272.54 1.656.336.376.828.564 1.476.564.984 0 1.54-.364 1.668-1.092h.996c-.112.632-.408 1.112-.888 1.44-.48.32-1.076.48-1.788.48Zm1.704-3.852c-.048-.648-.232-1.112-.552-1.392-.312-.28-.728-.42-1.248-.42-.512 0-.932.164-1.26.492-.32.32-.524.76-.612 1.32h3.672Zm5.809 3.852c-.512 0-.948-.112-1.308-.336a2.38 2.38 0 0 1-.816-.804V16h-.996V6.724h.996v4.056a1.92 1.92 0 0 1 .348-.432c.152-.144.32-.268.504-.372.184-.112.384-.2.6-.264.216-.064.44-.096.672-.096.408 0 .788.072 1.14.216.352.144.652.352.9.624.256.272.456.604.6.996.144.392.216.832.216 1.32v.096c0 .48-.068.92-.204 1.32a3.103 3.103 0 0 1-.576 1.02 2.583 2.583 0 0 1-.9.672 2.937 2.937 0 0 1-1.176.228Zm-.096-.828c.624 0 1.1-.2 1.428-.6.328-.408.492-.996.492-1.764v-.096a3.11 3.11 0 0 0-.156-1.032 2.082 2.082 0 0 0-.42-.744 1.53 1.53 0 0 0-.612-.444 1.798 1.798 0 0 0-.744-.156c-.288 0-.56.048-.816.144a1.71 1.71 0 0 0-.648.444c-.184.192-.328.44-.432.744a3.152 3.152 0 0 0-.156 1.044v.096c0 .4.048.748.144 1.044.104.296.244.544.42.744.184.192.404.336.66.432.256.096.536.144.84.144Zm9.388.828c-.288 0-.56-.036-.816-.108a1.896 1.896 0 0 1-.672-.336 1.685 1.685 0 0 1-.444-.576 2.012 2.012 0 0 1-.156-.828c0-.36.088-.664.264-.912.176-.248.408-.448.696-.6.296-.152.632-.26 1.008-.324a6.368 6.368 0 0 1 1.176-.108h.9v-.456c0-.504-.104-.864-.312-1.08-.208-.224-.552-.336-1.032-.336-.864 0-1.344.376-1.44 1.128h-.996c.032-.36.12-.664.264-.912.152-.248.34-.448.564-.6.232-.16.488-.272.768-.336a3.647 3.647 0 0 1 1.752 0c.28.064.524.184.732.36.208.168.376.396.504.684.128.288.192.652.192 1.092V16h-.996v-.792c-.232.296-.5.52-.804.672-.304.152-.688.228-1.152.228Zm.096-.792c.264 0 .508-.032.732-.096a1.77 1.77 0 0 0 .588-.3c.168-.128.3-.284.396-.468.096-.192.144-.408.144-.648v-.78h-.864c-.312 0-.604.024-.876.072-.264.04-.496.108-.696.204a1.197 1.197 0 0 0-.456.384.998.998 0 0 0-.156.576c0 .328.088.588.264.78.176.184.484.276.924.276Zm4.953-5.592h.996v.996c.144-.296.384-.552.72-.768.344-.224.776-.336 1.296-.336.32 0 .616.048.888.144.272.088.504.236.696.444.2.2.352.46.456.78.112.32.168.708.168 1.164V16h-.996v-3.924c0-.552-.12-.956-.36-1.212s-.612-.384-1.116-.384c-.232 0-.456.036-.672.108-.208.072-.392.18-.552.324-.16.144-.288.324-.384.54a1.815 1.815 0 0 0-.144.744V16h-.996V9.724Zm9.688 6.384c-.408 0-.788-.068-1.14-.204a2.683 2.683 0 0 1-.9-.612 3.01 3.01 0 0 1-.588-.984 4.01 4.01 0 0 1-.204-1.32v-.096c0-.48.072-.92.216-1.32.144-.4.344-.744.6-1.032.256-.296.564-.524.924-.684.36-.16.756-.24 1.188-.24.528 0 .956.112 1.284.336.328.216.584.476.768.78V6.724h.996V16h-.996v-1.08c-.088.152-.208.3-.36.444a2.792 2.792 0 0 1-.516.384 2.804 2.804 0 0 1-.612.252 2.074 2.074 0 0 1-.66.108Zm.108-.828c.288 0 .56-.048.816-.144.256-.096.476-.24.66-.432.184-.2.328-.448.432-.744.112-.304.168-.656.168-1.056v-.096c0-.808-.18-1.404-.54-1.788-.352-.384-.836-.576-1.452-.576-.624 0-1.112.208-1.464.624-.352.416-.528 1.008-.528 1.776v.096c0 .4.048.748.144 1.044.104.288.24.528.408.72.176.192.38.336.612.432.232.096.48.144.744.144Zm8.368-5.556h.996v.96c.144-.296.376-.548.696-.756.328-.208.72-.312 1.176-.312.408 0 .776.092 1.104.276.328.176.572.476.732.9.104-.2.24-.372.408-.516a2.41 2.41 0 0 1 .54-.372 2.69 2.69 0 0 1 .6-.216c.208-.048.408-.072.6-.072.28 0 .548.044.804.132.256.088.48.232.672.432.192.2.344.46.456.78.12.312.18.696.18 1.152V16h-.996v-3.96c0-.552-.116-.948-.348-1.188-.224-.248-.552-.372-.984-.372-.208 0-.412.036-.612.108a1.488 1.488 0 0 0-.9.84 1.732 1.732 0 0 0-.144.732V16h-.996v-3.96c0-.552-.116-.948-.348-1.188-.224-.248-.552-.372-.984-.372-.208 0-.412.036-.612.108a1.488 1.488 0 0 0-.9.84 1.732 1.732 0 0 0-.144.732V16h-.996V9.724Zm13.679 5.556c.312 0 .596-.056.852-.168a1.76 1.76 0 0 0 .648-.48c.176-.208.312-.456.408-.744.096-.296.144-.62.144-.972v-.084c0-.36-.048-.688-.144-.984a2.104 2.104 0 0 0-.42-.756 1.76 1.76 0 0 0-.648-.48 2.02 2.02 0 0 0-.84-.168c-.312 0-.596.056-.852.168a1.76 1.76 0 0 0-.648.48c-.176.208-.312.46-.408.756a3.064 3.064 0 0 0-.144.972v.096c0 .72.18 1.296.54 1.728.368.424.872.636 1.512.636Zm-.012.828c-.448 0-.86-.08-1.236-.24-.376-.16-.7-.38-.972-.66a3.1 3.1 0 0 1-.636-1.02 3.488 3.488 0 0 1-.228-1.272v-.096c0-.472.076-.904.228-1.296a3.12 3.12 0 0 1 .648-1.008c.272-.288.596-.508.972-.66.376-.16.788-.24 1.236-.24.44 0 .848.08 1.224.24.384.152.712.368.984.648s.484.616.636 1.008c.16.392.24.824.24 1.296v.096c0 .472-.08.908-.24 1.308a2.876 2.876 0 0 1-.648 1.008c-.272.28-.596.5-.972.66a3.268 3.268 0 0 1-1.236.228Zm7.91 0c-.512 0-.948-.112-1.308-.336a2.38 2.38 0 0 1-.816-.804V16h-.996V6.724h.996v4.056a1.92 1.92 0 0 1 .348-.432c.152-.144.32-.268.504-.372.184-.112.384-.2.6-.264.216-.064.44-.096.672-.096.408 0 .788.072 1.14.216.352.144.652.352.9.624.256.272.456.604.6.996.144.392.216.832.216 1.32v.096c0 .48-.068.92-.204 1.32a3.103 3.103 0 0 1-.576 1.02 2.583 2.583 0 0 1-.9.672 2.937 2.937 0 0 1-1.176.228Zm-.096-.828c.624 0 1.1-.2 1.428-.6.328-.408.492-.996.492-1.764v-.096a3.11 3.11 0 0 0-.156-1.032 2.082 2.082 0 0 0-.42-.744 1.53 1.53 0 0 0-.612-.444 1.798 1.798 0 0 0-.744-.156c-.288 0-.56.048-.816.144a1.71 1.71 0 0 0-.648.444c-.184.192-.328.44-.432.744a3.152 3.152 0 0 0-.156 1.044v.096c0 .4.048.748.144 1.044.104.296.244.544.42.744.184.192.404.336.66.432.256.096.536.144.84.144Zm4.664-5.556h.996V16h-.996V9.724Zm.48-1.308a.637.637 0 0 1-.468-.192.637.637 0 0 1-.192-.468c0-.184.064-.34.192-.468a.637.637 0 0 1 .468-.192c.184 0 .34.064.468.192a.637.637 0 0 1 .192.468c0 .184-.064.34-.192.468a.637.637 0 0 1-.468.192Zm2.72-1.692h1.008V16h-1.008V6.724Zm5.755 9.384c-.448 0-.856-.076-1.224-.228a2.916 2.916 0 0 1-.96-.636 2.966 2.966 0 0 1-.636-1.008 3.77 3.77 0 0 1-.216-1.308v-.096c0-.472.072-.904.216-1.296.144-.4.344-.74.6-1.02.264-.288.576-.508.936-.66.36-.16.756-.24 1.188-.24.36 0 .708.06 1.044.18.344.112.648.292.912.54.264.248.472.572.624.972.16.392.24.868.24 1.428v.324h-4.728c.024.72.204 1.272.54 1.656.336.376.828.564 1.476.564.984 0 1.54-.364 1.668-1.092h.996c-.112.632-.408 1.112-.888 1.44-.48.32-1.076.48-1.788.48Zm1.704-3.852c-.048-.648-.232-1.112-.552-1.392-.312-.28-.728-.42-1.248-.42-.512 0-.932.164-1.26.492-.32.32-.524.76-.612 1.32h3.672ZM106.652 31.108c-.288 0-.56-.036-.816-.108a1.896 1.896 0 0 1-.672-.336 1.685 1.685 0 0 1-.444-.576 2.012 2.012 0 0 1-.156-.828c0-.36.088-.664.264-.912.176-.248.408-.448.696-.6.296-.152.632-.26 1.008-.324a6.368 6.368 0 0 1 1.176-.108h.9v-.456c0-.504-.104-.864-.312-1.08-.208-.224-.552-.336-1.032-.336-.864 0-1.344.376-1.44 1.128h-.996c.032-.36.12-.664.264-.912.152-.248.34-.448.564-.6.232-.16.488-.272.768-.336a3.647 3.647 0 0 1 1.752 0c.28.064.524.184.732.36.208.168.376.396.504.684.128.288.192.652.192 1.092V31h-.996v-.792c-.232.296-.5.52-.804.672-.304.152-.688.228-1.152.228Zm.096-.792c.264 0 .508-.032.732-.096a1.77 1.77 0 0 0 .588-.3c.168-.128.3-.284.396-.468.096-.192.144-.408.144-.648v-.78h-.864c-.312 0-.604.024-.876.072-.264.04-.496.108-.696.204a1.197 1.197 0 0 0-.456.384.998.998 0 0 0-.156.576c0 .328.088.588.264.78.176.184.484.276.924.276Zm4.953-5.592h.996v1.056a1.92 1.92 0 0 1 .348-.432c.152-.144.32-.268.504-.372.184-.112.384-.2.6-.264.216-.064.44-.096.672-.096.408 0 .788.072 1.14.216.352.144.652.352.9.624.256.272.456.604.6.996.144.392.216.832.216 1.32v.096c0 .48-.068.92-.204 1.32a3.103 3.103 0 0 1-.576 1.02 2.583 2.583 0 0 1-.9.672 2.937 2.937 0 0 1-1.176.228c-.52 0-.96-.112-1.32-.336a2.411 2.411 0 0 1-.804-.804v3.216h-.996v-8.46Zm3.024 5.556c.624 0 1.1-.2 1.428-.6.328-.408.492-.996.492-1.764v-.096a3.11 3.11 0 0 0-.156-1.032 2.082 2.082 0 0 0-.42-.744 1.53 1.53 0 0 0-.612-.444 1.798 1.798 0 0 0-.744-.156c-.288 0-.56.048-.816.144a1.71 1.71 0 0 0-.648.444c-.184.192-.328.44-.432.744a3.152 3.152 0 0 0-.156 1.044v.096c0 .4.048.748.144 1.044.104.296.244.544.42.744.184.192.404.336.66.432.256.096.536.144.84.144Zm4.64-5.556h.996v1.056a1.92 1.92 0 0 1 .348-.432c.152-.144.32-.268.504-.372.184-.112.384-.2.6-.264.216-.064.44-.096.672-.096.408 0 .788.072 1.14.216.352.144.652.352.9.624.256.272.456.604.6.996.144.392.216.832.216 1.32v.096c0 .48-.068.92-.204 1.32a3.103 3.103 0 0 1-.576 1.02 2.583 2.583 0 0 1-.9.672 2.937 2.937 0 0 1-1.176.228c-.52 0-.96-.112-1.32-.336a2.411 2.411 0 0 1-.804-.804v3.216h-.996v-8.46Zm3.024 5.556c.624 0 1.1-.2 1.428-.6.328-.408.492-.996.492-1.764v-.096a3.11 3.11 0 0 0-.156-1.032 2.082 2.082 0 0 0-.42-.744 1.53 1.53 0 0 0-.612-.444 1.798 1.798 0 0 0-.744-.156c-.288 0-.56.048-.816.144a1.71 1.71 0 0 0-.648.444c-.184.192-.328.44-.432.744a3.152 3.152 0 0 0-.156 1.044v.096c0 .4.048.748.144 1.044.104.296.244.544.42.744.184.192.404.336.66.432.256.096.536.144.84.144Zm6.584.828c-.752 0-1.344-.176-1.776-.528-.424-.36-.652-.864-.684-1.512h.972c.04.376.168.672.384.888.224.216.588.324 1.092.324.48 0 .828-.08 1.044-.24.216-.168.324-.42.324-.756 0-.328-.124-.564-.372-.708-.24-.144-.604-.26-1.092-.348a6.969 6.969 0 0 1-1.032-.252 2.208 2.208 0 0 1-.672-.372 1.315 1.315 0 0 1-.372-.516 2.091 2.091 0 0 1-.108-.708c0-.288.064-.54.192-.756.128-.224.292-.408.492-.552.208-.152.436-.264.684-.336.256-.08.508-.12.756-.12.28 0 .548.032.804.096a1.823 1.823 0 0 1 1.2.864c.136.232.224.516.264.852h-.96c-.072-.344-.212-.592-.42-.744-.2-.16-.5-.24-.9-.24-.36 0-.648.084-.864.252a.765.765 0 0 0-.324.648c0 .144.02.268.06.372a.738.738 0 0 0 .24.264c.112.072.26.14.444.204.192.056.432.108.72.156.32.064.616.136.888.216.272.072.504.176.696.312.2.128.352.3.456.516.112.208.168.48.168.816 0 .576-.192 1.04-.576 1.392-.384.344-.96.516-1.728.516Zm3.386 1.032 1.152-2.628.972.456-1.476 2.508-.648-.336Zm9.788 1.152c-.464 0-.868-.052-1.212-.156a2.735 2.735 0 0 1-.852-.42 1.841 1.841 0 0 1-.528-.612 2.215 2.215 0 0 1-.252-.744h1.02c.144.728.748 1.092 1.812 1.092.616 0 1.104-.156 1.464-.468.368-.304.552-.792.552-1.464v-.912c-.088.152-.208.3-.36.444a2.463 2.463 0 0 1-.504.384 3.403 3.403 0 0 1-.6.264 2.311 2.311 0 0 1-.66.096c-.408 0-.788-.072-1.14-.216a2.803 2.803 0 0 1-.912-.624 2.952 2.952 0 0 1-.588-.936 3.265 3.265 0 0 1-.216-1.2v-.084c0-.424.072-.824.216-1.2a3.04 3.04 0 0 1 .6-.996c.256-.288.564-.512.924-.672.36-.168.756-.252 1.188-.252.528 0 .956.112 1.284.336.328.216.584.476.768.78v-1.008h.996v5.856c0 .456-.076.852-.228 1.188-.152.344-.36.628-.624.852-.264.224-.58.392-.948.504-.36.112-.76.168-1.2.168Zm-.012-3.324c.288 0 .556-.048.804-.144a1.97 1.97 0 0 0 .66-.432 2.05 2.05 0 0 0 .432-.696c.104-.28.156-.596.156-.948v-.084c0-.704-.18-1.248-.54-1.632-.352-.392-.836-.588-1.452-.588a2.02 2.02 0 0 0-.84.168 1.735 1.735 0 0 0-.624.468 2.09 2.09 0 0 0-.396.708 2.912 2.912 0 0 0-.132.9v.096c0 .344.052.652.156.924.104.264.24.492.408.684.176.184.38.328.612.432.24.096.492.144.756.144Zm6.74 1.14c-.288 0-.56-.036-.816-.108a1.896 1.896 0 0 1-.672-.336 1.685 1.685 0 0 1-.444-.576 2.012 2.012 0 0 1-.156-.828c0-.36.088-.664.264-.912.176-.248.408-.448.696-.6.296-.152.632-.26 1.008-.324a6.368 6.368 0 0 1 1.176-.108h.9v-.456c0-.504-.104-.864-.312-1.08-.208-.224-.552-.336-1.032-.336-.864 0-1.344.376-1.44 1.128h-.996c.032-.36.12-.664.264-.912.152-.248.34-.448.564-.6.232-.16.488-.272.768-.336a3.647 3.647 0 0 1 1.752 0c.28.064.524.184.732.36.208.168.376.396.504.684.128.288.192.652.192 1.092V31h-.996v-.792c-.232.296-.5.52-.804.672-.304.152-.688.228-1.152.228Zm.096-.792c.264 0 .508-.032.732-.096a1.77 1.77 0 0 0 .588-.3c.168-.128.3-.284.396-.468.096-.192.144-.408.144-.648v-.78h-.864c-.312 0-.604.024-.876.072-.264.04-.496.108-.696.204a1.197 1.197 0 0 0-.456.384.998.998 0 0 0-.156.576c0 .328.088.588.264.78.176.184.484.276.924.276Zm4.953-5.592h.996v.96c.144-.296.376-.548.696-.756.328-.208.72-.312 1.176-.312.408 0 .776.092 1.104.276.328.176.572.476.732.9.104-.2.24-.372.408-.516a2.41 2.41 0 0 1 .54-.372 2.69 2.69 0 0 1 .6-.216c.208-.048.408-.072.6-.072.28 0 .548.044.804.132.256.088.48.232.672.432.192.2.344.46.456.78.12.312.18.696.18 1.152V31h-.996v-3.96c0-.552-.116-.948-.348-1.188-.224-.248-.552-.372-.984-.372-.208 0-.412.036-.612.108a1.488 1.488 0 0 0-.9.84 1.732 1.732 0 0 0-.144.732V31h-.996v-3.96c0-.552-.116-.948-.348-1.188-.224-.248-.552-.372-.984-.372-.208 0-.412.036-.612.108a1.488 1.488 0 0 0-.9.84 1.732 1.732 0 0 0-.144.732V31h-.996v-6.276Zm13.63 6.384c-.448 0-.856-.076-1.224-.228a2.916 2.916 0 0 1-.96-.636 2.966 2.966 0 0 1-.636-1.008 3.77 3.77 0 0 1-.216-1.308v-.096c0-.472.072-.904.216-1.296.144-.4.344-.74.6-1.02.264-.288.576-.508.936-.66.36-.16.756-.24 1.188-.24.36 0 .708.06 1.044.18.344.112.648.292.912.54.264.248.472.572.624.972.16.392.24.868.24 1.428v.324h-4.728c.024.72.204 1.272.54 1.656.336.376.828.564 1.476.564.984 0 1.54-.364 1.668-1.092h.996c-.112.632-.408 1.112-.888 1.44-.48.32-1.076.48-1.788.48Zm1.704-3.852c-.048-.648-.232-1.112-.552-1.392-.312-.28-.728-.42-1.248-.42-.512 0-.932.164-1.26.492-.32.32-.524.76-.612 1.32h3.672Zm4.692 3.852c-.752 0-1.344-.176-1.776-.528-.424-.36-.652-.864-.684-1.512h.972c.04.376.168.672.384.888.224.216.588.324 1.092.324.48 0 .828-.08 1.044-.24.216-.168.324-.42.324-.756 0-.328-.124-.564-.372-.708-.24-.144-.604-.26-1.092-.348a6.969 6.969 0 0 1-1.032-.252 2.208 2.208 0 0 1-.672-.372 1.315 1.315 0 0 1-.372-.516 2.091 2.091 0 0 1-.108-.708c0-.288.064-.54.192-.756.128-.224.292-.408.492-.552.208-.152.436-.264.684-.336.256-.08.508-.12.756-.12.28 0 .548.032.804.096a1.823 1.823 0 0 1 1.2.864c.136.232.224.516.264.852h-.96c-.072-.344-.212-.592-.42-.744-.2-.16-.5-.24-.9-.24-.36 0-.648.084-.864.252a.765.765 0 0 0-.324.648c0 .144.02.268.06.372a.738.738 0 0 0 .24.264c.112.072.26.14.444.204.192.056.432.108.72.156.32.064.616.136.888.216.272.072.504.176.696.312.2.128.352.3.456.516.112.208.168.48.168.816 0 .576-.192 1.04-.576 1.392-.384.344-.96.516-1.728.516Zm8.71 0c-.288 0-.56-.036-.816-.108a1.896 1.896 0 0 1-.672-.336 1.685 1.685 0 0 1-.444-.576 2.012 2.012 0 0 1-.156-.828c0-.36.088-.664.264-.912.176-.248.408-.448.696-.6.296-.152.632-.26 1.008-.324a6.368 6.368 0 0 1 1.176-.108h.9v-.456c0-.504-.104-.864-.312-1.08-.208-.224-.552-.336-1.032-.336-.864 0-1.344.376-1.44 1.128h-.996c.032-.36.12-.664.264-.912.152-.248.34-.448.564-.6.232-.16.488-.272.768-.336a3.647 3.647 0 0 1 1.752 0c.28.064.524.184.732.36.208.168.376.396.504.684.128.288.192.652.192 1.092V31h-.996v-.792c-.232.296-.5.52-.804.672-.304.152-.688.228-1.152.228Zm.096-.792c.264 0 .508-.032.732-.096a1.77 1.77 0 0 0 .588-.3c.168-.128.3-.284.396-.468.096-.192.144-.408.144-.648v-.78h-.864c-.312 0-.604.024-.876.072-.264.04-.496.108-.696.204a1.197 1.197 0 0 0-.456.384.998.998 0 0 0-.156.576c0 .328.088.588.264.78.176.184.484.276.924.276Zm4.953-5.592h.996v.996c.144-.296.384-.552.72-.768.344-.224.776-.336 1.296-.336.32 0 .616.048.888.144.272.088.504.236.696.444.2.2.352.46.456.78.112.32.168.708.168 1.164V31h-.996v-3.924c0-.552-.12-.956-.36-1.212s-.612-.384-1.116-.384c-.232 0-.456.036-.672.108-.208.072-.392.18-.552.324-.16.144-.288.324-.384.54a1.815 1.815 0 0 0-.144.744V31h-.996v-6.276Zm9.688 6.384c-.408 0-.788-.068-1.14-.204a2.683 2.683 0 0 1-.9-.612 3.01 3.01 0 0 1-.588-.984 4.01 4.01 0 0 1-.204-1.32v-.096c0-.48.072-.92.216-1.32.144-.4.344-.744.6-1.032.256-.296.564-.524.924-.684.36-.16.756-.24 1.188-.24.528 0 .956.112 1.284.336.328.216.584.476.768.78v-4.008h.996V31h-.996v-1.08c-.088.152-.208.3-.36.444a2.792 2.792 0 0 1-.516.384 2.804 2.804 0 0 1-.612.252 2.074 2.074 0 0 1-.66.108Zm.108-.828c.288 0 .56-.048.816-.144.256-.096.476-.24.66-.432.184-.2.328-.448.432-.744.112-.304.168-.656.168-1.056v-.096c0-.808-.18-1.404-.54-1.788-.352-.384-.836-.576-1.452-.576-.624 0-1.112.208-1.464.624-.352.416-.528 1.008-.528 1.776v.096c0 .4.048.748.144 1.044.104.288.24.528.408.72.176.192.38.336.612.432.232.096.48.144.744.144Zm10.732.828c-.408 0-.788-.068-1.14-.204a2.683 2.683 0 0 1-.9-.612 3.01 3.01 0 0 1-.588-.984 4.01 4.01 0 0 1-.204-1.32v-.096c0-.48.072-.92.216-1.32.144-.4.344-.744.6-1.032.256-.296.564-.524.924-.684.36-.16.756-.24 1.188-.24.528 0 .956.112 1.284.336.328.216.584.476.768.78v-4.008h.996V31h-.996v-1.08c-.088.152-.208.3-.36.444a2.792 2.792 0 0 1-.516.384 2.804 2.804 0 0 1-.612.252 2.074 2.074 0 0 1-.66.108Zm.108-.828c.288 0 .56-.048.816-.144.256-.096.476-.24.66-.432.184-.2.328-.448.432-.744.112-.304.168-.656.168-1.056v-.096c0-.808-.18-1.404-.54-1.788-.352-.384-.836-.576-1.452-.576-.624 0-1.112.208-1.464.624-.352.416-.528 1.008-.528 1.776v.096c0 .4.048.748.144 1.044.104.288.24.528.408.72.176.192.38.336.612.432.232.096.48.144.744.144Zm5.216-5.556h.996V31h-.996v-6.276Zm.48-1.308a.637.637 0 0 1-.468-.192.637.637 0 0 1-.192-.468c0-.184.064-.34.192-.468a.637.637 0 0 1 .468-.192c.184 0 .34.064.468.192a.637.637 0 0 1 .192.468c0 .184-.064.34-.192.468a.637.637 0 0 1-.468.192Zm5.203 9.876c-.464 0-.868-.052-1.212-.156a2.735 2.735 0 0 1-.852-.42 1.841 1.841 0 0 1-.528-.612 2.215 2.215 0 0 1-.252-.744h1.02c.144.728.748 1.092 1.812 1.092.616 0 1.104-.156 1.464-.468.368-.304.552-.792.552-1.464v-.912c-.088.152-.208.3-.36.444a2.463 2.463 0 0 1-.504.384 3.403 3.403 0 0 1-.6.264 2.311 2.311 0 0 1-.66.096c-.408 0-.788-.072-1.14-.216a2.803 2.803 0 0 1-.912-.624 2.952 2.952 0 0 1-.588-.936 3.265 3.265 0 0 1-.216-1.2v-.084c0-.424.072-.824.216-1.2a3.04 3.04 0 0 1 .6-.996c.256-.288.564-.512.924-.672.36-.168.756-.252 1.188-.252.528 0 .956.112 1.284.336.328.216.584.476.768.78v-1.008h.996v5.856c0 .456-.076.852-.228 1.188-.152.344-.36.628-.624.852-.264.224-.58.392-.948.504-.36.112-.76.168-1.2.168Zm-.012-3.324c.288 0 .556-.048.804-.144a1.97 1.97 0 0 0 .66-.432 2.05 2.05 0 0 0 .432-.696c.104-.28.156-.596.156-.948v-.084c0-.704-.18-1.248-.54-1.632-.352-.392-.836-.588-1.452-.588a2.02 2.02 0 0 0-.84.168 1.735 1.735 0 0 0-.624.468 2.09 2.09 0 0 0-.396.708 2.912 2.912 0 0 0-.132.9v.096c0 .344.052.652.156.924.104.264.24.492.408.684.176.184.38.328.612.432.24.096.492.144.756.144Zm5.192-5.244h.996V31h-.996v-6.276Zm.48-1.308a.637.637 0 0 1-.468-.192.637.637 0 0 1-.192-.468c0-.184.064-.34.192-.468a.637.637 0 0 1 .468-.192c.184 0 .34.064.468.192a.637.637 0 0 1 .192.468c0 .184-.064.34-.192.468a.637.637 0 0 1-.468.192Zm4.604 7.668c-.576 0-1.004-.152-1.284-.456-.272-.304-.408-.704-.408-1.2v-3.864h-.9v-.84h.9v-1.428h.996v1.428h1.464v.84h-1.464v3.768c0 .608.26.912.78.912a2.163 2.163 0 0 0 .768-.132v.84c-.104.04-.22.072-.348.096a2.839 2.839 0 0 1-.504.036Zm4.128.024c-.288 0-.56-.036-.816-.108a1.896 1.896 0 0 1-.672-.336 1.685 1.685 0 0 1-.444-.576 2.012 2.012 0 0 1-.156-.828c0-.36.088-.664.264-.912.176-.248.408-.448.696-.6.296-.152.632-.26 1.008-.324a6.368 6.368 0 0 1 1.176-.108h.9v-.456c0-.504-.104-.864-.312-1.08-.208-.224-.552-.336-1.032-.336-.864 0-1.344.376-1.44 1.128h-.996c.032-.36.12-.664.264-.912.152-.248.34-.448.564-.6.232-.16.488-.272.768-.336a3.647 3.647 0 0 1 1.752 0c.28.064.524.184.732.36.208.168.376.396.504.684.128.288.192.652.192 1.092V31h-.996v-.792c-.232.296-.5.52-.804.672-.304.152-.688.228-1.152.228Zm.096-.792c.264 0 .508-.032.732-.096a1.77 1.77 0 0 0 .588-.3c.168-.128.3-.284.396-.468.096-.192.144-.408.144-.648v-.78h-.864c-.312 0-.604.024-.876.072-.264.04-.496.108-.696.204a1.197 1.197 0 0 0-.456.384.998.998 0 0 0-.156.576c0 .328.088.588.264.78.176.184.484.276.924.276Zm4.977-8.592h1.008V31h-1.008v-9.276Zm8.967 9.384c-.44 0-.848-.072-1.224-.216a3.054 3.054 0 0 1-.972-.636 3.12 3.12 0 0 1-.648-1.008 3.626 3.626 0 0 1-.228-1.32v-.096c0-.48.08-.916.24-1.308.16-.4.376-.74.648-1.02.28-.28.604-.496.972-.648.368-.16.764-.24 1.188-.24.328 0 .644.04.948.12.312.08.588.208.828.384.248.168.456.392.624.672.168.28.276.62.324 1.02h-.984c-.08-.496-.284-.848-.612-1.056-.32-.208-.696-.312-1.128-.312a1.93 1.93 0 0 0-.804.168c-.24.112-.452.272-.636.48a2.23 2.23 0 0 0-.42.744 2.991 2.991 0 0 0-.156.996v.096c0 .776.188 1.364.564 1.764.384.392.88.588 1.488.588.224 0 .436-.032.636-.096a1.651 1.651 0 0 0 .96-.768c.112-.192.18-.416.204-.672h.924a2.595 2.595 0 0 1-.276.948 2.386 2.386 0 0 1-.576.744c-.24.208-.52.372-.84.492-.32.12-.668.18-1.044.18Zm6.997-.828c.312 0 .596-.056.852-.168a1.76 1.76 0 0 0 .648-.48c.176-.208.312-.456.408-.744.096-.296.144-.62.144-.972v-.084c0-.36-.048-.688-.144-.984a2.104 2.104 0 0 0-.42-.756 1.76 1.76 0 0 0-.648-.48 2.02 2.02 0 0 0-.84-.168c-.312 0-.596.056-.852.168a1.76 1.76 0 0 0-.648.48c-.176.208-.312.46-.408.756a3.064 3.064 0 0 0-.144.972v.096c0 .72.18 1.296.54 1.728.368.424.872.636 1.512.636Zm-.012.828c-.448 0-.86-.08-1.236-.24-.376-.16-.7-.38-.972-.66a3.1 3.1 0 0 1-.636-1.02 3.488 3.488 0 0 1-.228-1.272v-.096c0-.472.076-.904.228-1.296a3.12 3.12 0 0 1 .648-1.008c.272-.288.596-.508.972-.66.376-.16.788-.24 1.236-.24.44 0 .848.08 1.224.24.384.152.712.368.984.648s.484.616.636 1.008c.16.392.24.824.24 1.296v.096c0 .472-.08.908-.24 1.308a2.876 2.876 0 0 1-.648 1.008c-.272.28-.596.5-.972.66a3.268 3.268 0 0 1-1.236.228Zm4.79-6.384h.996v.996c.144-.296.384-.552.72-.768.344-.224.776-.336 1.296-.336.32 0 .616.048.888.144.272.088.504.236.696.444.2.2.352.46.456.78.112.32.168.708.168 1.164V31h-.996v-3.924c0-.552-.12-.956-.36-1.212s-.612-.384-1.116-.384c-.232 0-.456.036-.672.108-.208.072-.392.18-.552.324-.16.144-.288.324-.384.54a1.815 1.815 0 0 0-.144.744V31h-.996v-6.276Zm9.232 6.36c-.576 0-1.004-.152-1.284-.456-.272-.304-.408-.704-.408-1.2v-3.864h-.9v-.84h.9v-1.428h.996v1.428h1.464v.84h-1.464v3.768c0 .608.26.912.78.912a2.163 2.163 0 0 0 .768-.132v.84c-.104.04-.22.072-.348.096a2.839 2.839 0 0 1-.504.036Zm5.067.024c-.448 0-.856-.076-1.224-.228a2.916 2.916 0 0 1-.96-.636 2.966 2.966 0 0 1-.636-1.008 3.77 3.77 0 0 1-.216-1.308v-.096c0-.472.072-.904.216-1.296.144-.4.344-.74.6-1.02.264-.288.576-.508.936-.66.36-.16.756-.24 1.188-.24.36 0 .708.06 1.044.18.344.112.648.292.912.54.264.248.472.572.624.972.16.392.24.868.24 1.428v.324h-4.728c.024.72.204 1.272.54 1.656.336.376.828.564 1.476.564.984 0 1.54-.364 1.668-1.092h.996c-.112.632-.408 1.112-.888 1.44-.48.32-1.076.48-1.788.48Zm1.704-3.852c-.048-.648-.232-1.112-.552-1.392-.312-.28-.728-.42-1.248-.42-.512 0-.932.164-1.26.492-.32.32-.524.76-.612 1.32h3.672Zm2.689-2.532h.996v.996c.144-.296.384-.552.72-.768.344-.224.776-.336 1.296-.336.32 0 .616.048.888.144.272.088.504.236.696.444.2.2.352.46.456.78.112.32.168.708.168 1.164V31h-.996v-3.924c0-.552-.12-.956-.36-1.212s-.612-.384-1.116-.384c-.232 0-.456.036-.672.108-.208.072-.392.18-.552.324-.16.144-.288.324-.384.54a1.815 1.815 0 0 0-.144.744V31h-.996v-6.276Zm9.232 6.36c-.576 0-1.004-.152-1.284-.456-.272-.304-.408-.704-.408-1.2v-3.864h-.9v-.84h.9v-1.428h.996v1.428h1.464v.84h-1.464v3.768c0 .608.26.912.78.912a2.163 2.163 0 0 0 .768-.132v.84c-.104.04-.22.072-.348.096a2.839 2.839 0 0 1-.504.036Zm3.182-.024a.759.759 0 0 1-.768-.768c0-.216.076-.396.228-.54a.738.738 0 0 1 .54-.228c.208 0 .388.076.54.228a.713.713 0 0 1 .228.54.759.759 0 0 1-.768.768Z" fill="#000"/><defs><clipPath id="clip0_1_370"><path fill="#fff" transform="translate(0 5)" d="M0 0h90v21H0z"/></clipPath><clipPath id="clip1_1_370"><path fill="#fff" transform="translate(0 5)" d="M0 0h90v21H0z"/></clipPath></defs></svg>