<svg width="1290" height="53" fill="none" xmlns="http://www.w3.org/2000/svg"><g clip-path="url('#clip0_1_82')" fill="#1D1D1B"><path d="M49.174 9.864c-.466-.392-.933-.392-1.477.078-2.565.94-7.383 4.228-8.55 3.993C41.092 11.273 43.19 8.69 45.6 6.34c1.01-1.41-.311-1.722-.466-2.505-.312-1.018-.156-2.114.155-3.053.466-.783-.466-.94-1.01-.627-6.296 6.576-11.659 13.152-16.633 19.807-.777 1.017-.622 1.8-.078 2.427l2.643 3.366c.544.94 1.399 1.096 2.487.392l8.316-5.637c-3.342 5.48-6.528 11.665-8.938 19.18-1.088 3.21 1.943 8.063 6.063 13.152.466.548 1.398 0 .777-1.096-3.964-7.437-.7-18.945 12.047-35.933.621-.705.854-1.41.388-2.114l-2.176-3.836ZM81.972 19.65l1.088-4.228c.233-.627.7-.94 1.321-1.018H89.2l.622-1.957H88.19l-5.13.078c-1.088-.078-1.943.313-2.487 1.566l-2.798 10.96-1.088 4.306c-.311.94-.078 1.722 1.088 2.035.078 0 .233.078.31.078h6.53l.543-1.957h-4.974c-.388-.313-.7-.313-.544-1.252l1.166-4.62c.156-.547.466-.939 1.01-.939h3.809l.544-1.644h-3.886c-.467-.313-.544-.783-.311-1.409ZM89.666 28.262c2.565-10.1 1.01-4.071 3.342-12.84.233-.626.7-.939 1.321-1.017H99.07l.467-1.566.155-.47H92.93c-1.088-.078-2.02.313-2.487 1.566l-2.331 9.16-1.555 6.028c-.31 1.096-.078 1.878 1.4 2.113h6.527l.545-1.957h-4.974c-.234 0-.545-.078-.389-1.017ZM64.64 22.311l-3.73-3.288c-.777-.94 0-4.462 1.632-4.54h5.518l.467-1.88H61.53c-2.175.392-3.963 4.933-3.108 7.125l3.808 3.444c.544.627.622 1.175.622 1.801l-1.088 3.758c-.233.94-.855.94-1.632.94h-5.13l-.466 1.8h7.539c1.166-.078 1.865-.783 2.02-1.957l1.244-4.776c.311-1.096-.078-1.879-.7-2.427ZM77.23 21.763l.545-2.27 1.165-4.776c.156-1.252-.233-1.957-1.165-2.113-.156-.079-.311-.079-.467-.079h-7.383l-3.187 11.978-1.865 6.968h2.565l4.585-16.989h3.031c.622.157 1.01.47 1.01 1.097l-1.243 5.166c-.155.862-.7 1.41-1.632 1.723l-2.332.47-.388 1.8 5.052-.94c.855-.234 1.554-.86 1.71-2.035ZM104.123 12.525h-3.031l-1.555 5.715-1.71 6.341-1.865 6.89H98.993l.544-2.114 4.586-16.832ZM131.014 12.525H128.061l-5.208 18.946h3.032l3.264-11.9 1.865-7.046ZM144.304 23.643c.156-.548.467-.94 1.011-.94h3.808l.544-1.644h-3.964c-.466-.313-.544-.783-.311-1.409l1.166-4.227c.234-.627.699-.94 1.321-1.018h4.82l.387-1.253.233-.783h-6.683c-1.088-.078-2.021.313-2.487 1.566l-2.799 10.96-1.087 4.306c-.311.94-.078 1.722 1.087 2.035.078 0 .234.079.311.079h6.529l.544-1.957h-5.052c-.388-.314-.699-.314-.544-1.253l1.166-4.462ZM163.425 12.525h-8.939l-1.476 5.324-1.71 6.341-1.943 7.202h9.094c1.32-.078 2.098-.782 2.409-2.113l4.042-15.11c.155-.94-.389-1.565-1.477-1.644Zm-1.788 3.445-3.342 11.743c-.077.94-.699 1.566-1.943 1.644h-3.186c-.078 0-.156 0-.233-.078-.311-.157-.311-.548-.156-.94l.156-.548 3.963-13.543h3.886c1.01.078 1.166.704.855 1.722ZM131.635 28.026l9.56-12.29.699-.94c.856-1.253.545-2.192-.699-2.192h-8.782l-.078 1.722h5.363c.699 0 1.088.313.622.94L129.148 27.4l-1.554 2.035c-.622.94-.388 1.645.7 2.114h9.481l.545-2.114h-6.529c-.622-.156-.7-.939-.156-1.409ZM109.408 12.604l-9.871 18.632-.156.313H101.713l7.772-14.874.7.078.388 4.149c.311 1.018-.388.94-.621.94h-2.177l-.388 1.565 2.565.078c.466.079.699.314.621.783l.467 7.046h2.642l-1.088-18.789-3.186.079ZM117.724 28.026l4.197-15.5h-3.031L114.382 29.2c-.078.94.311 1.957 1.554 2.27h5.985l.621-2.035-4.274-.078c-.544-.078-.777-.548-.544-1.33Z"/></g><g clip-path="url('#clip1_1_82')" fill="#1D1D1B"><path d="M281.587 29.501v-.319c0-.064.064-.064.064-.128v-.383l-.064-.064v-.064c0-.127.064-.255.064-.447v-.191h.063c.064 0 .064-.064.064-.064 0-.064 0-.064.064-.128v-.064h-.064v-.063c0-.064 0-.064.064-.064l.064-.064v-.192l.064-.064v-.127c0-.064-.064 0-.064-.064v-.256c0-.063 0-.063.064-.127v-.575l.064-.064v-.255s0-.064.064-.064v-.511c0-.064 0-.128.063-.191 0-.064 0-.064.064-.128 0 0 0-.064.064-.064 0 0-.064 0-.064-.064l.064-.064v-.255l.064-.064v-.575h.064V22.541h.064v-.128s0-.064.064-.064v-.319l.063-.064v-.255l.128-.128v-.319c0-.064.064-.064.064-.064v-.447l.064-.064c0-.064.064-.064.064-.064h.127l.064-.064v-.638c0-.064.064-.064.064-.064V18.837l.064-.064v-.255s.064 0 .064-.064v-.128c0-.063.064-.127.128-.191.063-.064.063-.128.127-.192s.064-.127.128-.255v-.128c0-.064 0-.064.064-.127 0-.064.064-.128.064-.192v-.255c0-.064.064-.064.064-.128v-.064l.063-.064c.064 0 .064-.064.064-.064 0-.064 0-.127.064-.191h.064v-.128c0-.064-.064-.064-.064-.128v-.255c0-.064.064-.064.064-.128v-.191s0-.064.064-.064l.064-.064v-.319c0-.064.064-.064.064-.128 0 0 .063-.128 0-.128v-.127c0-.064 0 0 .063 0 0 0 .064 0 0 0v-.192c0-.064.064-.128.064-.128v-.191c0-.064 0-.064.064-.128 0-.064 0-.064.064-.064s.064-.064.064-.128v-.255l.064-.064v-.128s0-.064.064-.064v-.063h.063v-.128l.064-.064v-.511s0-.064.064-.064v-.064c0-.063 0-.063.064-.127v-.064h.064v-.128h.064v-.383l.064-.064v-.127s0-.064.063-.064v-.064l.064-.064v-.064c0-.064 0-.064.064-.128l.064-.063c0-.064.128-.128.128-.192s.063-.064.063-.128v-.064s-.063 0 0-.063c0 0 .064-.064.064-.128.064-.064 0-.064.064-.128l.064-.064v-.319s.064-.064 0-.064c0-.064.064-.128.064-.128 0-.063.064-.063.064-.127s.064-.128.064-.192c0 0 0-.064.063-.064v-.064c0-.063.064-.063.064-.127v-.128c.064 0 0-.064.064-.064v-.064c0-.064.064-.064.064-.127v-.128h.064v-.064c0-.064 0-.064.064-.064v-.064c.064 0 .064-.191.127-.191.064-.128.128-.256.192-.447.064-.064.064-.192.128-.256 0 0 0-.063.064-.063v-.064c0-.064.063-.128.063-.128v-.064c0-.064 0-.064.064-.128.064-.063.064-.127.064-.191v-.128s0-.064.064-.064v-.064s0-.063.064-.063v-.064c0-.064.064-.064.064-.128v-.064c0-.064.064-.064.064-.128 0-.063.063-.063.063-.127 0 0 .064 0 .064-.064 0 0 0-.064.064-.064 0-.064 0-.192.064-.192V5.94l.064-.064c-.064-.064 0-.064.064-.128 0 0 .064 0 .064-.064V5.62c0-.064.063-.064.063-.127 0-.064 0-.064.064-.128l.064-.064c0-.064.064-.064.064-.128.064-.064.128-.127.192-.255 0 0 0-.064.063-.064h.064s0-.064.064-.064c0-.064 0-.064.064-.064l.064-.064.064-.063.064-.064s0-.064.063-.064c0 0 .064 0 .064-.064v-.192l.064-.063v-.064h.064v-.064h.064v-.064h.064s.064-.064.064-.128h.127c.064 0 0-.064.064-.064h.064v-.191h.064v.128h.064V3.64l.064-.064v-.128h.063v-.064s.064 0 0 0v.064h.064v-.064h.128V3.13s.064.064.064 0v-.383l.064-.064h.064s-.064-.064 0-.064v-.064h.063v-.191l.064-.064.064-.064v-.064s0-.064.064-.064v-.064l.064-.063V.447c0-.064 0-.064-.064-.064V0c0-.064-.064-.064-.064-.064v-.064l-.064-.064v-.063c0-.064-.064-.064-.064-.128v-.064l-.063-.064c-.064-.064-.064-.128-.128-.191l-.064-.064V-.83h-.064s-.064 0-.064-.064v-.064h-.127l-.064-.064h-.064s-.064 0-.064-.064c-.064 0-.064-.063-.128-.063s-.064 0-.127-.064h-.192l-.064-.064h-1.022c-.063 0-.063.064-.127.064s-.064 0-.128.064c-.064 0-.064.063-.128.063-.191.064-.383.256-.574.384 1.149 1.34 1.085 1.34 1.021 1.404v.064h-.064s-.063.064 0 .064c-.063 0-.063.064-.063.064 0 .064-.064 0-.064.064 0 0 0 .064-.064.064l-.128.127-.128.128c-.063.064-.127.192-.191.256 0 .063-.064.127-.064.191-.064 0-.128.192-.192.256-.063.063-.063.191-.127.255-.064.192-.128.383-.256.575-.064.127-.064.191-.127.319-.064.128-.128.191-.128.32 0 .127-.064.255-.128.382-.064.128-.064.256-.128.32-.063.191-.191.383-.255.574-.064.128-.064.192-.128.32-.064.127-.064.191-.127.319-.064.191-.128.447-.192.638 0 .064-.064.128-.128.192 0 .064-.063.192-.063.255-.064.128-.128.32-.192.447-.064.192-.128.384-.192.511-.063.256-.191.447-.255.703a.484.484 0 0 1-.128.255c0 .128-.064.192-.127.32-.064.127-.128.255-.128.382-.064.128-.064.32-.128.447-.064.192-.128.32-.191.511-.064.192-.128.447-.192.639-.192.51-.383 1.022-.511 1.532 0 .064 0 .064-.064.128 0 .064 0 .064-.064.128 0 .064-.063.064-.063.127-.064.064-.064.064-.064.128 0 .128-.064.192-.064.32 0 .191-.064.255-.128.447 0 .063-.064.127-.064.255-.064.128-.191.255-.191.447 0 .128-.064.191-.128.32 0 .127-.064.19-.064.319 0 .063-.064.191-.064.255-.064.064-.064.191-.127.255-.064.128 0 .192-.064.32-.064.127-.128.191-.128.319v.32c0 .063-.064.127-.064.127 0 .064-.064.128-.064.191v.192c0 .064-.064.128-.064.192-.063.255-.127.574-.255.83-.064.127-.064.255-.128.447-.064.127-.127.255-.127.383-.064.255-.128.575-.192.83 0 .128-.064.192-.064.32v.127c0 .064-.064.128-.064.192 0 .063 0 .127-.064.191-.063.128-.127.255-.127.383-.064.32-.192.575-.256.83-.064.256-.127.447-.191.703 0 .127 0 .191-.064.319a.487.487 0 0 1-.128.32c0 .063-.064.127-.064.255v.127c0 .064-.063.064-.063.064v.192c-.064.064 0 .128-.064.191 0 .128-.064.256-.128.447-.064.192-.128.447-.192.639 0 .128-.063.255-.063.32-.064.19-.064.446-.128.638 0 .127-.064.191-.064.319s-.064.192-.064.32c0 .063-.064.255-.064.319-.064.063-.064.191-.064.319s0 .191-.063.32c-.064.127-.064.318-.128.446 0 .128-.064.255-.064.383s-.064.192-.064.32c0 .127-.064.319-.064.51l-.191.958c0 .128-.064.256-.064.447 0 .192-.064.447-.128.639 0 .064-.064.128-.064.255 0 .192-.064.32-.064.511-.063.32-.063.639-.191.894 0 .128-.064.255-.064.32-.064.382-.128.83-.192 1.212 0 .192-.063.384-.063.575v.511l-.064.064v.128c0 .127-.064.255-.064.383h-.064v.127c-.064 0 0 .064-.064.128-.064 0-.064-.064-.064-.064-.064-.064-.064-.064-.127-.064 0-.063 0-.063-.064-.127v-.064c0-.064.064-.192 0-.255 0-.064-.064-.064-.064-.128s.064-.064 0-.128c0-.128-.064-.128-.192-.128 0-.063.064-.063.064-.063v-.575c0-.064-.064-.128-.064-.192s-.064-.127-.064-.191l.064-.064v-.128c0-.128.064-.064.064-.191-.064-.192 0-.128 0-.256 0-.064 0-.128-.064-.191l-.064-.064c-.063 0 0-.064-.063-.064v-.064h.063-.063c-.064.064-.064 0-.064-.064v-.064s-.064 0 0-.064l.127-.063h-.063c0 .063-.064 0-.064 0v-.32l.064-.064v-.063c-.064-.064 0 0 0-.064v-.447c0-.064-.064-.064-.064-.128v-.128l-.064-.064v-.063s-.064-.064 0-.064v-.128s0-.064-.064-.064v-.064c0-.064-.064-.127-.064-.191v-.511s0-.064-.064-.064l-.064-.064c0-.064 0-.128-.063-.128v-.191s-.064-.064 0-.064h.063v-.064c0-.064-.063-.128-.063-.128-.064-.063-.064-.063-.064-.127v-.383c0-.064 0-.064-.064-.064v-.128l-.064-.064c-.064-.064-.064-.127-.064-.191v-.064s-.064 0-.064-.064.064 0 0-.064h-.064v-.128s.064-.063 0-.063c0-.064-.063-.064-.063-.064-.064 0-.064 0-.064-.064v-.511h-.064c0-.128-.064-.255-.064-.383v-.064c0-.064 0-.064-.064-.064-.064-.064-.064-.128-.064-.191v-.32s.064 0 .064-.064h-.064V26.117s.064-.064 0-.064v-.192c0-.063 0-.063.064-.063 0 0 .064 0 .064-.064v-.256s-.064 0-.064-.064c0 0 .064 0 .064-.063v-.064s.064 0 .064-.064l-.064-.064c-.064 0-.064 0-.128-.064v-.127c0-.064.064-.064.064-.064v-.064l-.064-.064v-.128h.064c0-.064 0-.064-.064 0h-.064v-.064h.064v-.064h-.064s-.063-.127 0-.127h.064v-.128s-.064 0-.064-.064v-.255c0-.064-.063-.064-.063-.128v-.447c0-.064-.064-.128 0-.191V22.477l-.064-.064v-.319c0-.064 0-.064-.064-.128V20.561c0-.063 0-.191-.064-.255v-.128c0-.064 0-.064-.064-.127 0-.064-.064-.192-.064-.256s0-.064-.064-.064v-.191c0-.064-.063-.064-.063-.128v-.128l-.064-.063s0-.064-.064-.064l-.064-.064-.064-.064-.064-.064c-.063-.064-.127-.064-.127-.064h-.064c-.064 0-.064 0-.128-.064h-.766c-.064 0-.064 0-.128.064h-.064l-.064.064h-.063c-.064 0-.064 0-.128.064-.064 0-.064.064-.064.064-.064.064-.128.064-.192.128-.063.063-.127.063-.127.127-.064.064-.128.128-.128.256-.064.127-.128.191-.128.319-.064.128-.064.255-.127.383v.064l-.064.064c0 .064 0 .127-.064.191 0 0 0 .064-.064.064v.064c0 .064-.064.064-.064.128v.191c-.064.128-.064.256-.128.383 0 .064 0 .064-.063.064v.064c0 .064-.064.128-.064.192s-.064.127-.064.127c-.064.192-.128.447-.192.639 0 .064-.064.128-.127.192-.511.255-.511.255-.511.383 0 .064-.064.127-.064.255 0 .064-.064.128-.064.192-.064.064-.064.127-.064.191s-.064.128-.064.192v.191c0 .064-.064.192-.064.256-.063.127-.063.255-.127.383s-.064.255-.128.383c0 .128 0 .128-.064.192s-.064.127-.064.191c-.064.064-.127.128-.127.192s0 .127-.064.191c-.064.128-.128.256-.128.447 0 .128-.128.192-.192.32 0 .063-.063.127-.063.191v.256c-.064.063-.064.191-.128.255 0 0-.192.128-.064.128-.064.064-.128.064-.064.191l-.064.128v.191c-.063.192-.127.32-.191.511-.064.192-.192.384-.256.575h.064c0 .064 0 .128-.064.192 0 .064-.063.127-.063.191v.128l-.064.064c0 .064 0 .127-.064.191 0 .064 0 .128-.064.128 0 .064 0 .128-.064.192 0 .127-.064.191-.128.319-.063.128-.063.192-.127.32-.064.255-.128.51-.128.765 0 .128.064.256.128.384.127.191.255.383.447.447.064.063.191.063.255.127h.702s.064 0 .064-.064h.064l.064-.063c.064 0 .064 0 .128-.064s.191-.064.255-.128l.128-.128s.064 0 .064-.064c0 0 0-.063.064-.063.063-.064.127.063.127 0v-.064c-.064-.064 0-.128 0-.192s0-.064.064-.064.064-.064 0-.127v-.064s.064 0 0-.064c0 0 .064 0 .064-.064v-.128c-.064.128-.064.128-.064.064v-.128c0-.063.064-.063.064-.127l.064-.064s-.064 0 0-.064c0-.064.064-.064.128-.128v-.063s.063 0 .063-.064v-.128c0-.064.064-.128.064-.192l.064-.064s.064 0 .064-.063c0-.064-.064 0-.064 0v-.064h.064v-.128h.064v-.128l.064-.064s.064 0 0 0 0-.063 0-.063l.064-.064V29.5c0-.064.063 0 .063-.064v-.064h-.127v-.063s0-.064.064 0h.063v-.064c-.063 0 0 0 0 0h.064v-.256h.064v-.063h-.064c-.064 0 0 0 0-.064v-.064h.064v-.064c0-.064 0-.064.064-.064v-.064h.064v-.447h-.064v-.064s.064 0 0 0v-.064s.064 0 .064-.063l.064-.064h-.064v-.064c0-.064 0 0 .064 0s0-.064 0-.064v-.064s.064-.064 0-.127c0 0 0 .063 0 0v-.192h.127v.064c0-.064-.063 0-.063-.064h-.064v-.192s.064.064.127.064v-.255h.064v-.192l.064-.064v-.063l.064-.064h.064v.064h.191v.063s0 .064.064.064h.064s.064 0 0 0v.128s-.064.064 0 .064v.064l.064-.064.064-.064c.064 0 .064 0 .064.064s0 .064-.064.064h-.064v.191s-.064 0 0 .064c0 0 .064 0 .064.064v.192c0 .063.064 0 .064.063v.064c-.064.064 0 .128 0 .192l.064.064h.063v.191h.064v.256c0 .064 0 .064-.064.127l.064-.063V29.31c0 .064 0 .127.064.191V31.29c.064 0 0 .192.064.128v.064s.064 0 .064.064V32.566c0 .128.064.256.064.383v1.788c0 .064 0 .128.064.192v.766c0 .064 0 .128.063.128v.128c0 .063.064.063.064.063V36.846c0 .063 0 .063.064.127v.32c-.064 0 0 0 0 .063V38.313l.064.064V39.08c0 .063 0 .127.064.127V39.91s-.064.064 0 .064v.255h.128l.063.064v.255c0 .064 0 .064-.063.064h-.128s.064 0 0 0c0 0-.064 0 0 .064h.255V41.634h-.064l.064.064V42.528h.064v.064c0 .063.064.063.064.063v.256s0 .064 0 0v.702l.064.064v.319c0 .064 0 .128.064.192v.702c-.064 0 0 0 0 .064v.256c0 .063 0 .063.064.063v1.341c0 .064 0 .064.063.128v.128c0 .064 0 .064.064.128v.255c0 .064.064.064.064.128h.064l.064.064.064.063v.064l.064.064.063.064h.064l.064.064h.064c.064 0 .064.064.128.064H275.648c.064 0 .064 0 .128-.064l.191-.064v-.064h.064l.064-.064h.192l.064-.064.063-.063.064-.064.064-.064v-.064l.064-.064v-.255c0-.064 0-.064.064-.128v-.766c0-.064 0-.128.064-.192 0-.064 0 0 .064-.064h-.064v-.447h.064V41.442c-.064 0 0-.064 0-.064v-1.596c0-.064 0 0 0 0V37.994c0-.064.063-.064 0-.064v-.894c0-.064.063-.064.063-.128v-.383h.064v-.511s0-.063.064-.063h.128l.064-.064v-.256h-.064c3.256.83 3.256.83 3.256.767v-.384s0-.063.064-.063V34.865c0-.064.064 0 .064-.064v-.064s.064 0 .064-.064v-.127l.064-.064v-.128h.064v-.447h-.064v-.191h-.064s-.064 0-.064-.064V32.31h.064V31.8h.064l-.064-.064v-.191l-.064-.064v-.128c0-.064 0-.064.064-.064v-.064c.064-.064.064-.127 0-.191v-.319l.064-.064-.064-.064v-.128c0-.064 0-.128.064-.192l.064-.063v-.192c0-.064 0-.064.064-.064v-.511h.063c.639.128.703.128.767.064-.064.064-.064 0 0 0 0 0-.064 0 0 0ZM291.676 23.69c-.064 0 0 0 0 0-.064 0-.064 0 0 0-.128 0-.191 0-.255.064-.064 0-.128.064-.192.064 0 0-.064 0-.064.064h-.064c-.063 0-.063 0-.063.063 0 0-.064 0-.064.064l-.064.064s-.064 0-.064.064h-.064c-.064.064-.191.128-.255.192l-.128.127c-.064.064-.064.064-.064.128 0 0 0 .064-.064.064 0 .064-.064.064-.064.128 0 .063-.063.127-.063.191s-.064.128-.064.192v.064c-.064.063-.064.127-.064.191s0 .128-.064.192c0 .127-.064.255-.064.383V26.627c.064 0 0 .064 0 .128v2.299s-.064.064 0 .064c-.064 0 0 .127 0 .127v.32l-.064.064c0 .063 0 .127-.063.191-.064 0-.064.192 0 .192v.064s-.064.063 0 .063c0 0-.064.256 0 .256v.064l-.064.064c0 .063 0 .063.064.127 0 .064-.064.128 0 .192v.255s0 .064-.064.064v.319s0 .064-.064.064V32.63c0 .064-.064.064-.064.127v.192c0 .064.064.064.064.128V34.418h.064v.127c0 .064.064.064.064.064l.063.064.064.064h.064v.064c.064 0 .064.064.064.064.064 0 .064 0 .064.064 0-.064.127 0 .127 0h.32c.064 0 .127-.064.127-.064s.128 0 .128-.064h.064c0-.064.128-.064.192-.064.063 0 .063-.064.127-.064l.064-.064h.192s.064 0 .064-.064c0 0 .063 0 .063-.063 0 0 .064 0 .064-.064l.064-.064h.064v-.064s0-.064.064-.064l.191-.191s0-.064.064-.064l.064-.064c.064-.064.064-.128.064-.128 0-.064.064-.064.064-.128 0-.063.064-.127.064-.127l.064-.128V32.247c.063 0 .063-.064.063-.128v-.128s-.063-.064 0-.128c0-.063 0 0 .064-.063v-.831s-.064-.063 0-.063V29.948c.064 0 0-.128 0-.128v-.191c0-.064.064-.064.064-.128v-.447h-.064v-.064s-.064 0 0-.064v-.191c-.064 0 0-.064 0-.064v-.128c.064 0 0-.064 0-.064s.064 0 .064-.064c0 0 0-.063.064-.063h.064v-.256s0-.064.064-.064v-.064c0-.064.064-.064.064-.064v-.255c0-.064.063 0 .063-.064 0 0-.063 0-.063-.064v-.064c0-.063.063-.063.127-.063 0-.064-.064-.064-.064-.128v-.128c0-.064 0-.064.064-.128 0 0 0-.063.064-.063v-.064l.064-.064c.064-.064.064-.128.128-.128l.127-.127.128-.128c.064-.064.064-.128.128-.128l.064-.064v-.064h.064s.063 0 .063-.064l.064-.063s0-.064.064-.064h.064l.064-.064h.064c.064 0 .064-.064.064-.064l.063-.064c.064 0 .064-.064.128-.064l.128-.127.064-.064h.064l.063-.064s.064 0 .064-.064c.064 0 .128-.064.128-.064.064 0 .064-.064.064-.128h.064c.064-.063.127-.191.191-.191 0-.064.064-.064.064-.128 0 0 0-.064.064-.064 0 0 .064 0 .064-.063v-.064s0-.064.064-.064c0-.064.063-.128.063-.192-.063 0 0-.127 0-.191v-.256l-.063-.064v-.063s0-.064-.064-.064c0 0 0-.064-.064-.064v-.192l-.064-.064s0-.063-.064-.063v-.128l-.064-.064-.127-.128-.064-.063h-.064c-.064 0-.128-.064-.192-.064h-.447s-.063-.064-.063 0v.064h-.064v-.064h-.064l.064.064-.064.063h-.128s-.064 0-.064.064c-.064 0-.064.064-.064.064h-.191c-.064 0-.128 0-.128.064h.064v.064h-.128c-.064 0-.127.064-.127.064-.064 0-.064.064-.064.064-.064 0-.128.063-.192.063s-.128.064-.191.064h-.128c-.064 0-.128 0-.128.064h-.894c0 .064 0 0 0 0ZM288.675 20.625c.064-.064 0-.127 0-.191v-.064c-.064 0-.064-.064-.064-.064 0-.064 0-.064-.064-.128v-.255l-.064-.064v-.128c0-.063 0-.127-.063-.063h-.511v.063h-.064c-.064 0-.128.064-.128.064l-.064.064h-.064c-.063 0-.063.064-.127.064s-.064 0-.128.064l-.064.064c-.064.064-.191.127-.255.191l-.128.128c-.064.064-.064 0-.128.064 0 .064-.064.064-.127.127-.064 0-.064.064-.128.064-.064.064-.128.128-.128.192 0 0 0 .064-.064.064l-.064.064v.127s0 .064-.063.064l-.064.064v.128c0 .064-.064.064-.064.128V22.03l.064.064v.064c0 .064.064.064.064.128v.127h.063c0 .064 0 .064.064.128l.064.064h.192v.064s.064-.064.064 0h.191c.064 0 .064.064.128.064h.128v-.064l.063-.064h.064c0-.064.064 0 .064-.064 0 0 .064 0 .064-.064-.064-.064.128 0 .128-.064 0 0 0-.064.064-.064h.063s0-.063.064-.063c0 0 .064 0 .064-.064h.064s.064 0 .064-.064h.064s0-.064.064-.064l.127-.064.064-.064v-.064s0-.063.064-.063l.064-.064c.064 0 .064-.064.128-.064v-.128c0-.064.063-.064.063-.064.064 0 .064 0 .064-.063l.064-.064s0-.064.064-.064V21.2h.064v-.064c0-.064.064-.064.064-.127v-.256h.064s-.064 0-.064-.064c0 0 0-.064.064-.064-.256.064-.256.064-.192 0-.064 0-.064 0 0 0ZM306.938 26.117c0 .064 0 .064.063.128l.128.127.064.064c.064 0 .128 0 .192.064h.383c.064 0 .255-.064.319-.064.064-.064.255-.127.319-.191s.128-.064.192-.128h.064v-.064h.063l.128-.128h.064v-.063h.064c.064 0 .064-.064.128-.128.063-.064.127-.064.127-.128l.192-.191c0-.064.064-.064.064-.128v-.128c0-.064.064 0 .064-.064.063 0 .063-.063.063-.127v-.128c-.063 0-.063 0 0 0v-.128s0-.064.064-.064v-.191l-.064-.064v-.639s-.063 0 0-.063V22.477l.128.064h.064v-.191h-.064v-.128h-.064v-.128h.064v.064h.064v-.192h-.064s-.064 0-.064-.063v-.383h.064v-.064c0-.064-.064-.128 0-.128l.064-.064h.064v-.191l.064-.064h.064v-.064s-.064 0-.064-.064v-.256l-.064-.063v-.128h.064l-.064-.064v-.192s.064 0 .064-.063v-.064s0 .064-.064 0v-.256h.064v-.191h-.064v-.064s.064 0 .064-.064l-.064-.064v-.127c0-.064 0-.064.064-.064V18.07h.064-.064v-.127s.064 0 0 0v-.128h-.064.128v-.192h-.064l.064-.064v-.127l-.064-.064h.064v-.766h-.064v-.128c0-.064 0 0 0 0v-.192h-.639s0 .064 0 0v-.064h-.511l-.064.064s-.063.064-.127.064l-.128.128h-.064v.064s-.064 0-.064.064h-.063l-.064.127s-.064.064-.064.128c0 0 0 .064-.064.064l-.064.064v.064l-.064.127v.064l-.064.064v.255l-.063.128v.447l-.064.064v.639s0 .063 0 0V19.923h-.064v.639s0 .063.064.063v.384h-.064v.064h-.064V23.307s-.064.064 0 .064v.256c0 .064 0 .319-.064.319 0 .064-.064.128 0 .192v1.404c0 .064 0 .128.064.192-.766.255-.766.383-.702.383Z"/><path d="M327.563 20.05s-.064.064-.064 0c0-.063.064-.063.064-.063v-.064c0-.064 0-.064.064-.064v-.128c0-.064 0 0 0 0s-.064 0-.064-.064l.064-.063c0-.064-.064 0-.064-.064v-.128c-.064 0 0-.064-.064-.064 0 0-.064 0-.064-.064 0-.063-.064 0-.064-.063v-.064l-.064-.064c0-.064 0-.064-.064-.064l-.063-.064h-.064v-.064s0-.064-.064-.064l-.064-.064v.064s-.064 0-.128-.064c0 0 0-.063-.064-.063 0 .063-.063 0-.063 0 0 .063 0 .063.063.063H325.455c-.063 0-.127 0-.191.064-.064 0-.128.064-.192.064h-.064c-.127.064-.191.064-.319.128-.064 0-.128.064-.128.064s0 .064-.063.064h-.064c-.064 0-.064.064-.128.064 0 .063-.064.063-.128.063s-.064.064-.127.064c-.064 0-.064.064-.128.064-.064.064-.128.064-.192.128h-.064l-.063.064h-.064c0 .064-.064.064-.064.064h-.064c.192.127.128.127.128.127l-.064.064h-.064s-.064 0-.128.064h-.064s-.063 0-.063.064h-.064c-.064 0-.064 0-.064.064 0 0-.064 0-.064.063-.064 0-.128.064-.128.064-.064 0-.127.064-.127.064h-.064c0 .064-.128.064-.128.064-.064 0-.128.064-.191.064-.128.064-.256.064-.32.128h-.127c-.064 0-.064-.064-.128 0-.064 0-.064-.064-.128-.064-.064-.064 0-.128-.064-.128 0 0-.064-.064-.127 0 0 0-.064 0-.064-.064v-.064c0-.064-.064 0-.064 0s-.064-.064 0-.064v-.063c-.064 0 0-.064-.064-.064 0 .064-.064.064-.064 0-.064 0 0 0-.064-.064h.064s-.064-.064 0-.064.064-.064.128-.128v-.064h-.128v-.063c-.064 0 .064-.128.064-.128h-.128v-.192c0-.063 0-.063-.064-.063v-.064h.064v-.064c0-.064-.064 0-.064 0-.063 0-.063-.064-.063-.128h.063c.064-.064-.063 0-.063 0-.064 0 0-.064 0-.064h.063v-.128s0-.063-.063-.063c-.064 0 0 .063 0 .063h-.064v-.191c.064 0 .064.064.064 0v-.192s0-.064-.064-.064V18.2s0-.064.064-.064v.064-.383c0-.064.063 0 .063-.064s.064-.064 0-.064c0 0-.063 0-.127-.064v-.255s.064 0 .064-.064 0-.064-.064-.064l-.064-.064v-.192h.064c.064 0 0-.063 0-.063 0-.064 0-.064-.064-.064s-.064 0-.064-.064v-1.022s.064-.064 0-.064v-.191h.128s-.064 0-.064-.064v-.064h-.064v-.128c0-.063 0-.063.064-.063s.064 0 .064-.064 0-.064-.064-.064-.064 0-.064-.064v-.192h.128s0 .064.064 0v-.063c-.064 0-.064 0-.064-.064s0-.064-.064-.128c0-.064-.064-.064 0-.064v-.127s.064 0 .064-.064h-.064c0-.064.064 0 .064 0v-.064s-.064 0-.064-.064c0 0 0-.064.064-.064l.064.064c.063 0 0-.064 0-.064-.064.064 0-.064-.064-.064v-.319c0-.064-.064.064-.128.064 0 0-.064.064-.064 0v-.064l.064-.064v-.064c-.064 0-.064-.064-.064-.064v-.319s0-.064.064-.064h.192v-.064h-.128V12.9s.064 0 .064-.064c0 0 .064 0 0-.064h-.064c-.064 0 0-.064-.064-.128l-.064-.064v-.191h.128c0-.064-.064-.128-.064-.128h-.064v-.064c0-.063-.064-.127-.064-.191 0 0 .064-.064 0-.064 0 0 0 .064-.064 0v-.192l-.063-.064v-.127c0-.064-.064 0-.064.064-.064 0-.064-.064-.128-.128l-.064-.064-.064-.064c-.127-.064-.255-.064-.383-.127-.064 0-.128 0-.191-.064h-.384c-.063 0-.127 0-.191.063h-.319c-.064 0-.064 0-.128.064-.064 0-.128 0-.192.064l-.064.064c-.063 0-.063.064-.127.064s-.128.064-.192.064c-.128.064-.191.127-.319.191-.064 0-.128.064-.128.064-.064 0-.128.064-.128.064s0 .064-.063.064l-.064.064-.128.127c0 .064-.064.064-.128.128l-.063.064s-.064 0-.064.064c-.064.064-.192.128-.256.255 0 0 0 .064-.064.064h-.063c0 .064-.064.064-.064.128l-.128.128s-.064 0-.064.064c-.064 0-.064 0-.064.063 0 .064-.127.064-.127.128-.064 0-.128.064-.128.064h-.064l-.064.064s-.064 0-.064.064h-.127c-.064 0-.128.063-.192 0h-.255c-.064 0-.064 0-.064-.064s0-.064-.064-.064h-.256s-.063 0-.063.064l-.064.064c-.064.063-.128 0-.192 0h-.191c-.128 0-.256 0-.447.063-.064 0-.128.064-.192.064h-.128c-.064 0-.127.064-.191.128-.064 0-.128.064-.192.064l-.064.064h-.127s0 .064-.064.064-.128.127-.128.191l-.128.128c0 .064-.064.064-.064.128-.063.063-.063.063-.063.127s-.064.128-.064.192-.064.128-.064.191c-.064.128-.128.256-.128.384v.383c0 .127 0 .255-.064.383V18.646c-.064 0 0 .064 0 .064-.064.063 0 .127 0 .127v.064c0 .064-.064.064 0 .128v2.107c.064 0 0 .064 0 .064V22.796c0 .064 0 .192.064.256 0 0 0 .064.064.064 0 .064 0 .064.064.127.064.064.064.128.191.192.064.064.128.128.192.128h.255c.064 0 .128.064.256 0 .064 0 .191 0 .255-.064a.486.486 0 0 0 .256-.128c.064 0 .064 0 .064-.064 0 0 .063-.064.127-.064s.064-.063.064-.063h.064s.064 0 .064-.064c.064 0 .128-.064.128-.064s.063 0 .063-.064l.064-.064h.128v-.064l.064-.064.064-.063c0 .063.127 0 .064 0-.064-.064.063-.064.127-.128v-.32h.064c.064 0 0 0 0-.063v-.192c.128 0 0-.064.064-.064l.064-.064s.064 0 .064-.064v-.063c0-.064.064 0 .064-.064v-.128c0-.064-.064-.064-.064-.064-.064-.064 0-.064 0-.127 0-.064-.064-.064-.064-.128.064 0 .064.128.064.128.064 0 0-.064 0-.064V21.2c0-.064.064-.064.064-.064v-.191c0-.064.063-.064.063-.128 0 0 0-.064-.063-.064 0 0-.064 0-.064-.064 0 0-.128 0-.128-.064s.128 0 .128 0v-.064h-.064c-.064 0-.064-.063-.064-.063 0-.064-.064-.064 0-.064 0 0 .064 0 .064-.064s0-.064-.064-.064c0-.064.064-.064.064-.064.064 0 .064-.064.064-.128h-.064c-.064 0-.064.064-.064.064h-.064l.064-.064s-.064 0-.064-.063V19.22c0-.064 0-.064.064-.064h.064c0-.064-.064-.064 0-.064l-.064-.064h-.064c0-.064.064-.064 0-.128-.064 0 .064-.064.064-.064v-.127s-.064-.128 0-.064v.127h.064s.064 0 .064-.063c.064 0 .064-.064 0-.064h-.064v-.128s-.064 0-.064-.064c0 0 .064 0 .064-.064v-.064h-.064c-.064 0-.064-.063-.128-.127 0 0-.064 0-.064-.064v-.128h.064s.064 0 0 0c0-.064-.064-.064-.064-.128 0-.063.192 0 .128-.063-.064 0 0 0 0 0h.064c.064 0 .064-.064.064-.128.064-.064 0-.064 0-.128v-.064l-.064-.063v-.064c0-.064 0-.064-.064-.064v-.128c0-.064.064-.128.064-.128.064 0 .128.064.128 0l-.064-.064h-.128c.064 0 .128 0 .128-.063 0-.064-.064 0-.064-.064 0 0 .064 0 .064-.064 0 0 .064 0 .064-.064s-.064 0-.064 0c-.064 0-.128 0-.064-.064h.064c0-.064-.064-.064 0-.064 0-.064.128 0 .064.064h.064c.063 0 0 0 .063-.064l.064-.064c0-.063-.064 0-.127-.063 0-.064 0-.064.063-.128 0 0 .064 0 .064-.064v-.319c0-.064-.064 0 0-.064v-.064h.064v-.191c0-.064.064-.128 0-.192v-.064s.064 0 .064-.064c.064 0 .064-.064.128-.064.064-.063.064-.127.064-.191l-.064-.064h.064v.064c0 .064.063 0 .063 0 0-.064.064-.064.064-.064l.128-.128.064-.064s.064 0 .064-.063c.064-.064.064-.128.064-.192.063 0 .063-.064.127-.064s0 0 0-.064v-.063s0-.064.064-.064c0 0 .064 0 .064-.064h.064c.064 0 .064-.128.128-.128l.063-.064h.128l.064-.064c.064 0 .064 0 .128-.063.064-.064.064-.064.127-.064h.128c.064 0 .064-.064.064-.064h.319c.128 0 .256.128.319.191l.064.064v.064h.064V16.538h-.064v.192h.064v.064c0 .064 0 .064-.064.064 0 0-.064.064 0 .127v.256c0 .064 0 .128-.064.192v.127c0 .064 0 .192-.063.256 0 .064 0 .064.063.127 0 .064.064.128.064.192s0 .128-.064.191v.767c0 .064-.063.064 0 .128 0 .063.064.063.064.063v1.086c0 .064 0 .128.064.191v.128c0 .064 0 .064.064.064l.064.064v.064s0 .064.064.064l.064.063c0 .064.063.064.127.128l.064.064.064.064c.064.064.128.064.192.064.063 0 .063 0 .063.064 0 .063 0 .063-.063.063 0 0-.064 0-.064.064-.064 0-.064.064-.128.064h-.064c-.064.064-.128.064-.191.128-.064 0-.064.064-.128.064s-.064.064-.128.064c0 0-.064 0-.064.063l-.064.064s-.063 0-.063.064l-.064.064c-.064.064-.128.064-.192.128-.128.063-.191.127-.319.127-.255.128-.447.32-.702.384-.064 0-.128.063-.192.063s-.064.064-.064.064-.064 0-.064.064c-.127.064-.191.128-.319.192-.064 0-.128.064-.128.064h-.064c-.063 0-.063 0-.063.063-.064.064-.128.064-.192.128h-.064c-.064 0-.064.064-.128.064l-.063.064s-.064 0-.064.064c-.128.064-.192.127-.32.191-.127.064-.255.128-.319.192l-.064.064h-.064s-.063 0-.063.063c0 0-.064 0-.064.064-.128.064-.256.128-.32.192-.127.064-.255.128-.319.191-.064.064-.128.064-.191.128-.064 0-.128.064-.128.064-.128.064-.192.128-.319.128-.064 0-.128.064-.192.064s-.064.064-.128.127l-.064.064h-.063c-.064.064-.128.064-.128.128-.128.064-.192.128-.319.191-.064 0-.064.064-.128.064 0 0-.064 0-.128.064 0 0-.064 0-.064.064 0 0-.063 0-.063.064-.064 0-.064 0-.064.064 0 0-.064 0-.064.064l-.064.063h-.064s0 .064-.064.064h-.191v.064h-.064c-.064 0-.128.064-.128.064s-.064 0-.064.064c0 0-.064 0-.064.064l-.063.064-.064-.064s-.064 0-.128.064v.063h-.064c-.064.064-.064.128-.128.128h-.063s0 .064-.064.064c-.064.064-.064.064-.128.064s-.128.064-.192.064c-.063 0-.127.064-.191.064s-.128.063-.192.063c-.064.064-.127.064-.127.064l-.064.064-.064.064c-.064.064-.064.064-.128.064-.064.064-.128.064-.128.128-.063 0-.063.063-.127.063s-.064 0-.128.064-.128.064-.128.128c-.064.064-.127.064-.127.064-.064 0-.128.064-.128.128 0 0-.064.063-.128.063h-.064l-.064.064-.127.064c-.128.064-.256.192-.447.255-.128.064-.256.192-.383.256-.256.192-.511.32-.767.447-.127.128-.319.192-.447.32l-.063.063h-.064c-.064 0-.064 0-.064.064 0 0-.064.064-.128.064s-.128.064-.128.064c-.063.064-.127.064-.191.064l-.064.063s-.064 0-.064.064c-.064.064-.128.064-.128.064s-.063 0-.063.064c-.064 0 0 0-.064.064 0 0-.064 0-.064.064 0 0-.064 0-.064.063v.064h-.064s0 .064-.064.064h-.064v.064l-.063.064s-.128.064-.192.064v-.128s.064 0 0-.064v-.191c0-.064.064-.128 0-.192 0-.064-.064-.128 0-.192V28.607c0-.064 0 0 .064-.064v-.191c0-.064-.064-.064-.064-.128s.064-.064.064-.128c-.064 0 0-.064 0-.064-.064 0-.064-.127 0-.191h.064l-.064-.064v-.064c0-.064.064-.064.064-.128v-.255c0-.064-.064 0-.064-.064v-.319s.064 0 0-.064h-.064v-.575s0-.063.064-.063c0 0 .064 0 .064-.064h-.064v-.447c0-.064.064-.128.064-.192-.064 0 0-.064 0-.064V24.584c-.064 0 0-.064 0-.127v-.511c0-.192.064-.383.064-.575v-1.213s-.064 0-.064-.064.064-.064.064-.064v-.638s.191-.064.063-.128c0 .064 0 .064-.063 0v-.256h.063c.064-.063 0-.063-.063-.127v-.064h.063v-.064s-.063 0 0-.064h.064v-.319s-.064-.064 0-.064c.064-.064.128-.064.064-.128l-.064-.064c0-.063 0-.063.064-.063v-.384c.064 0 .064 0 .064-.063v-.256h.064s.064-.064 0-.064l-.064-.063v-.192l.064-.064c-.064 0 0-.064 0-.064v-.319s.064-.064 0-.064c0 0-.064 0-.064-.064s.064 0 .064 0h-.064c-.064 0 0 0 0-.064s0-.127-.064-.127-.064 0-.064-.064l-.064-.064c0-.064-.063-.064-.127-.128-.064-.128-.192-.128-.32-.191-.063 0-.127-.064-.191-.064h-.256c-.127 0-.319 0-.447.064-.063 0-.063.064-.127.064 0 0-.064 0-.064.063h-.064v.064s-.064.064-.128 0h-.064c-.063 0-.063.064-.127.064s-.064.064-.128.064-.064.064-.128.128c0 .063-.064.063-.127.127l-.064.064v.064c-.064.064-.064.128-.064.192v.319c0 .064-.064.128-.064.192V23.18c0 .063-.064-.064-.064.063v.064c0 .064 0 0 .064 0v.256h-.064v1.085c0 .064 0 .128-.064.192v.702c0 .128-.064.192 0 .32v.127s0 .064-.064.064v.192c0 .063 0 .127-.063.191 0 .128 0 .256-.064.383v.128c0 .064 0 .128-.064.192-.064.255-.128.447-.256.638 0 .064-.063.064-.127.128l-.192.191c0 .064-.064.064-.064.064s0 .064-.063.064h-.064l-.064.064-.064.064h-.064s-.064 0-.064.064h-.127l-.064.064c-.064.063-.192.063-.32.063h-.255s-.064 0-.064-.063c-.064 0-.064 0-.128-.064-.063 0-.063-.064-.063-.064-.064-.064-.128-.064-.128-.128-.064-.064-.064-.128-.064-.192v-.127l-.064-.064c-.064-.128-.064-.256-.064-.383 0-.128-.064-.256 0-.383v-.064c0-.064-.064-.064-.064-.064v-.064c0-.064 0-.128-.063-.128V26.5l.063-.064c0-.064.064-.128.064-.191v-.192c0-.128 0-.255.064-.383v-.511l.064-.064v-.064c.064 0 .064-.127.064-.191s0-.128-.064-.192c-.064 0-.064-.064-.064-.064v-.383c.064 0 0-.255 0-.255v-.064c0-.064.064-.064.064-.128V23.5s0-.064.064-.064c0-.064.064-.128.064-.192 0-.063 0-.127.064-.191 0-.064.063-.128.063-.192.064-.064.128-.127.128-.191s.064-.128.064-.256c0-.064 0-.191.064-.191 0 0 0-.128.064-.064v-.064c.064 0 .064-.064.064-.128s.063-.128.063-.064c0 0 .064-.064.064-.127v-.128c-.064 0 0-.064.064-.064s.064-.064.064-.064c.064-.064.128-.064.128-.127h.064c0-.064 0-.128.063-.192 0-.064.128-.192.128-.128 0 0 .064 0 .064-.064 0 0 0-.063.064-.063 0-.064.064 0 .064-.064 0 0 .064-.064.064-.128v-.128h.063v-.127l.064-.064.064-.064v-.128s0-.064.064-.064v-.064c0-.063.064-.127.064-.191s0-.064-.064-.064v-.064c0-.064 0-.128.064-.128v-.383s0-.063-.064-.063l-.064-.064s0-.064-.064-.064H300.552c-.064 0-.128.064-.192.064s-.127 0-.127.064h-.064c-.064 0-.064 0-.064.063h-.064s-.064 0-.064.064c-.064 0-.128 0-.128.064l-.063.064-.064.064-.064.064h-.128s-.064.064-.064 0h-.127l-.064.064c-.128.063-.192.127-.256.191s-.191.128-.255.192l-.128.127-.064.064s0 .064-.064.064h-.063v.064s0 .064-.064.064c0 .064-.064.064-.064.127v.064h-.064s0 .064-.064.128-.064.128-.128.192l-.063.127s0 .064-.064.064v.064l-.064.064-.064.064c0 .064-.064.064-.064.127 0 .064 0 .064-.064.128v.064l-.064.064-.063.064v.064s0 .063-.064.063c0 0 0 .064-.064.064 0 0 0 .064-.064.064v.064s0 .064-.064.064c0 .064-.064.127-.064.191v.064s0 .064-.064.064v.064l-.063.064v.064c0 .064 0 .064-.064.127 0 .064 0 .064-.064.128 0 .064-.064.128-.064.128 0 .064 0 .128-.064.191 0 .064 0 .128-.064.192 0 .064 0 .128-.064.192 0 .127-.063.191-.063.319 0 .064 0 .127-.064.127v.064s.064.064 0 .064c0 .064 0 .128-.064.192v.255c0 .064-.064.064-.064.128V26.18c0 .064 0 .064-.064.127 0 .064 0 .064-.064.128v.383c.064 0 0 .192 0 .256s.064.064.064.064v2.043c.064.064 0 .064 0 .128v.255c.064.128.064.192.064.32v.063s0 .064.064.064c0 .064 0 .128.064.128 0 .064.064.127.064.127s0 .064.063.128c0 .064.064.064.064.064v.128l.064.064.192.191c.064.064.127.064.127.128v.064c.064.064.192.127.256.191.064 0 .128.064.191.064 0 0 .064 0 .064.064 0 0 0 .064.064.064v-.064h.319c.064 0 .064.064.128.064h.511c.064-.064.128 0 .192 0h.51c.064 0 .128-.064.256-.064h.064v-.064h.255s.128.064.128 0c0 0-.128 0-.128-.064s.064 0 .128-.064c.064 0 .064-.063.128-.063 0 0 .063.063.127 0v-.064h.064s0-.064.064-.064h.192c.063 0 .063 0 .127-.064.064 0 .128 0 .128-.064h.064v-.064c.064-.064.064 0 .128 0v-.064h.063l.064-.063h.128s0-.064.064-.064c0 0 .064 0 .127-.064l.064-.064c.064 0 .064 0 .128-.064l.064-.064h.128c.063 0 .063.128.063.192V31.289s0 .064.064.064c0 .064 0 0-.064.064v.511s.064.063 0 .063v.064c-.063 0-.063 0-.127.064l-.064.064-.064.064s-.064 0-.064.064l-.128.127c-.063.064-.127.064-.191.128-.064 0-.064.064-.128.128s-.127.064-.127.128h-.064c-.192.063-.32.191-.447.255-.064.064-.128.064-.192.128l-.064.064-.064.064v.063h-.063l-.064.064c-.128.064-.192.192-.32.256-.127.063-.191.191-.383.319-.127.064-.255.255-.447.32 0 .063 0 .063-.064.063l-.063.064c-.064.064-.128.064-.128.064s-.064 0-.064.064c0 0 0 .063-.064.063s-.064 0-.064.064l-.064.064-.063.064h-.064c0 .064-.064.064-.064.064-.064 0-.064.064-.128.064s-.064.064-.128.064c-.063 0-.063.063-.127.063 0 .064-.064.064-.064.064l-.064.064s-.064 0-.064.064l-.064.064-.064.064c-.063 0-.063 0-.127.064s-.128.064-.128.127l-.192.192c-.063.064-.127.128-.191.128h-.064s0 .063-.064.063c0 0-.064 0-.064.064 0 0 0 .064-.064.064-.063 0-.063.064-.127.064s-.064.064-.128.064c0 .064-.064 0-.064.064 0 0 0 .064-.064.064 0 0-.064 0-.064.063v.064h-.063c-.064 0-.064.064-.128.128l-.064.064s-.064 0-.064.064c-.064 0-.127.064-.191.064l-.064.063s-.064 0-.064.064c0 0 0 .064-.064.064 0 0 0 .064-.064.064 0 0-.064 0-.064.064-.063 0-.063.064-.127.128-.064 0-.064.063-.128.127 0 0-.064 0-.128.064l-.064.064c-.063 0-.127.064-.191.128l-.064.064c-.064 0-.064.063-.064.063l-.064.064-.064.064s-.063 0-.127.064c-.064 0-.064.064-.064.064-.064.064-.128.064-.192.127l-.127.128c-.064.064-.128.064-.192.128s-.128.064-.128.128c-.064.063-.064.127-.127.127-.064.064-.064.064-.192.128s-.255.192-.319.256c-.128.063-.192.191-.32.255-.063.064-.127.064-.191.128l-.064.063c-.064 0-.064 0-.064.064l-.255.256c-.064.064-.192.128-.256.191-.064.064-.127.128-.191.128.064.064-.192.064-.128.192-.064 0 0-.064-.064 0 0 .063-.128.191-.191.191-.703.32-.767.32-.767.383-.063.064-.063.064-.191.064l-.064.064-.064.064c-.064.064-.064.128-.128.128a.774.774 0 0 0-.319.319c-.064 0-.064.064-.128.064 0 0-.063.064-.063.127-.064 0-.064 0-.064.064 0 0-.064 0-.064.064-.064.064-.128.064-.128.128-.128.064-.191.191-.319.255s-.256.256-.383.32c0 0-.064 0-.064.063 0 0 0 .064-.064.064s-.064 0-.064.064l-.064.064c-.064.064-.127.064-.191.128 0 0-.064 0-.064.063-.064 0-.128.064-.192.128l-.127.128c-.064 0-.128.128-.192.128 0 0-.064.064-.128.064l-.064.063c-.063.064-.127.064-.191.128s-.128.128-.192.128c-.127.064-.191.191-.319.255l-.128.128-.127.128-.128.127v.064h-.064c-.064 0-.128.064-.192.128 0 .064-.063.064-.063.064l-.064.064-.064.064s-.064 0-.064.063c0 0 0 .064-.064.064h-.064l-.064.064c-.127.192-.191.255-.191.32-.128.127-.192.19-.319.319-.064.064-.128.064-.128.127l-.192.192c-.127.064-.191.191-.319.255-.128.128-.255.192-.319.32l-.064.063-.064.064c-.064.064-.128.064-.128.128l-.127.128c-.064.064-.128.064-.128.127a1.407 1.407 0 0 1-.319.256c-.128.064-.192.191-.256.255l-.319.32-.192.191c-.063.064-.127.128-.127.192-.064.127-.192.255-.256.319s-.127.191-.191.255-.064.128-.128.192-.064.128-.128.192c-.064.063-.064.127-.064.191.064 0 0 .064 0 .064 0 .064-.063.191-.063.191 0 .128.063.128.063.256v.128c0 .063 0 .063.064.127 0 .064 0 .128.064.128 0 0 0 .064.064.064 0 .064.064.128.064.192l.064.063c0 .064 0 .064.064.128 0 .064.063.064.127.064.064.064.064.128.128.128.128.063.192.127.319.191h.064s.064 0 .064.064h.128s.064 0 .064.064H283.886c.063 0 .063 0 .063-.064h.064c.064 0 .064 0 .064-.064 0 0 .064 0 .064-.064 0 0 0-.064.064-.064 0-.063.064-.063.064-.063.064 0 .064-.064.064-.064s.063 0 .063-.064c0 0 0-.064.064-.064l.128-.128s0-.063.064-.063c0-.064.064 0 .064-.064 0 0 0-.064.064-.064l.063-.064.128-.128.192-.191v-.064c0-.064.064-.064.127-.128l.128-.128c.064 0 .064-.064.128-.127l.127-.128s.064 0 .064-.064l.064-.064s0-.064.064-.064l.064-.063s.064 0 .064-.064c0 0 0-.064.064-.064h.063s0-.064.064-.064l.064-.064v-.064s.064 0 .064-.064l.064-.063.128-.128c0-.064.063-.064.063-.128s0-.064.064-.128c0 0 .064 0 .064-.063h.064s0-.064.064-.064c0 0 .064 0 .064-.064 0 0 0-.064.064-.064l.127-.128c0-.064.064-.064.128-.064l.128-.127.064-.064s0-.064.063-.064c.064-.064.064-.064.128-.064l.128-.128c0-.063.064-.063.064-.063s0-.064.064-.064c0 0 .063 0 .063-.064.064 0 .064-.064.064-.128 0 0 0-.064.064-.064 0 0 .064 0 .064-.064l.128-.127.127-.128s.064 0 .064-.064c0 0 0-.064.064-.064l.128-.127c.064-.064.128-.064.128-.128.127-.064.127-.192.191-.256.064-.063.128-.191.256-.191 0 0 .063 0 .063-.064l.128-.128c0-.063.064-.063.064-.063l.064-.064c.064-.064.064-.064.064-.128l.064-.064v-.064s.063 0 .063-.064l.064-.064.064-.063.064-.064c.064-.064.064-.128.128-.128.064-.064.127-.064.191-.191 0-.064.064-.064.128-.064s.064-.064.128-.064.064-.064.127-.064c0-.064 0-.064.064-.064s.064 0 .064-.064.064-.064.128-.127c0 0 .064 0 .064-.064l.063-.064.128-.128.064-.064v-.064l.128-.127.127-.128c0-.064 0-.064.064-.064s.064 0 .064-.064l.128-.127.064-.064s0-.064.064-.064c0-.064.063-.064.127-.128l.064-.064s.064 0 .064-.064c0 0 0-.063.064-.063l.064-.064s.064 0 .064-.064c0 0 0-.064.063-.064.064-.064.064-.064.128-.064 0 0 0-.064.064-.064l.064-.064.064-.063.064-.064s.063-.064.127-.064c.064-.064.192-.128.256-.192l.127-.127c.064 0 .064-.064.128-.128l.064-.064s.064 0 .064-.064l.128-.128.127-.127c.064-.064.192-.128.256-.192.064 0 .064-.064.064-.064.063 0 .127-.064.191-.127l.192-.192c.064-.064.191-.128.255-.191l.128-.128h.064v-.064s.064 0 .064-.064l.127-.128.128-.127c.064-.064.128-.064.128-.128s.064-.064.127-.064c.064 0 .064-.064.128-.064l.064-.064h.064l.064-.063.127-.128s.064 0 .064-.064h.064s0-.064.064-.064l.064-.064c.064-.064.127-.064.127-.128l.128-.127c.064 0 .064 0 .064-.064 0 0 .064 0 .064-.064l.064-.064.064-.064h.127s0-.063.064-.063h.064l.064-.064.064-.064c.064-.064.127-.064.127-.128.064-.064.192-.128.256-.255 0 0 .064 0 .064-.064l.064-.064c.063 0 .063-.064.127-.064l.128-.128.128-.127.064-.064h.063c0-.064 0 0 0 0l.064-.064c.064-.064.128-.064.128-.128v-.064h.064c.064 0 .064 0 .064-.063 0 0 .064 0 .064-.064.063 0 .063-.064.127-.064l.128-.128s0-.064.064-.064h.128s.063 0 .063-.064v-.063h.064c0-.064.064-.064.064-.064s.064 0 .064-.064c.064 0 0 0 .064-.064l.064-.064s.064 0 .064-.064c0 0 0-.064.063-.064 0 0 .064 0 .064-.063l.064-.064.064-.064c.064 0 .064-.064.128-.064 0 0 .064-.064.127-.064 0 0 0-.128.064-.064.064 0 .128-.064.128-.064.064 0 .128-.063.128-.127.064-.064.127-.064.127-.128l.064-.064s.064 0 .064-.064l.064-.064c0-.063 0-.063.064-.063s.064-.064.128-.064c0-.064.063-.064.127-.128s.064-.064.128-.064.064-.064.064-.064c.064 0 .064-.063.128-.063.063-.064.127-.064.127-.128.064-.064.064-.064.128-.064 0 0 .064 0 .064-.064 0 0 .064 0 .064-.064.063 0 .063-.064.127-.064s.064-.063.128-.063c0 0 .064 0 .064-.064.064 0 .064 0 .128-.064V41.442l.063.064v.255h-.063v.064s0 .064.063.064v.703c0 .063-.063.127-.063.191v.383c0 .128 0 .192.063.32V44.827c0 .063 0 .127-.063.191V47.636c.063 0 0 .128 0 .192v1.532c.063 0 .063.064.063.064V51.084c0 .064.064.128.064.192v.255c0 .064.064.128.064.192s.064.064.064.128l.064.063.064.064c.064.064.127.064.127.128.064 0 .064.064.128.064.064.064.128.064.128.064.128.064.255.064.383.127.064 0 .128.064.192.064h.638s.064 0 .064-.064h.064l.064-.063s.064 0 .064-.064c.127-.064.255-.192.447-.32l.063-.063.064-.064c.064-.064.064-.128.128-.128 0 0 0-.064.064-.064v-.064c0-.063.064-.063.064-.127v-.128h.127s0-.064.064-.064h.064c-.064 0-.128-.064-.128-.064h-.063v-.191s.127 0 .127-.064h-.127.063v-.064c0-.064-.063-.064 0-.064 0 0 .064-.064.128-.064 0 0 .064-.064 0-.064 0 0 0 .064-.064.064s0-.064 0-.064h-.064s0-.063-.063-.063v.063h-.064v-.063s-.064 0-.064-.064c0 0 .064-.064 0-.064l-.064.064v-.064c-.064.064 0 0-.064-.064h-.064c-.064 0 0-.064 0-.064v-.064h.064c-.064 0 0-.064 0-.064h-.128s-.063.064-.063 0v-.127c.063 0 0 0 0 .063 0 0 0 .064.063.064h.064v-.063s.064 0 .064-.064c0 0-.064 0-.064-.064h-.064.064l.064-.064c-.064 0 0-.064 0-.064.064 0 0 .064 0 .064.064 0 .064-.064.064-.128h-.128c-.064 0-.064-.064-.064-.064-.063-.064-.063.064-.127 0 .064 0 .064-.127.127-.064 0 0 0 .064.064.064l.064-.064s0-.063-.064-.063c0 0-.064 0-.064-.064-.063 0 0 0-.063-.064-.064 0 0 0 0 .064v-.192h-.064c0 .064.064.128-.064.128-.064 0-.128-.064-.128-.064v-.064c0-.064.064 0 0-.064l-.064-.063v-.128h.064s.064 0 0-.064h-.064v-.064c0-.064.064 0 .128 0s.064-.064.064-.064l-.064-.064c-.064 0-.064.064-.064.064h-.064c-.127 0 0-.064 0-.064h.192s-.064 0-.064-.063l.064-.064.064-.064v-.064l.064-.064s-.064 0-.064-.064c0 0 .064 0 0-.064 0 0 0 .064-.064.064s0-.064 0-.064h-.064v-.063h-.064v-.447h-.064v-.064h-.064v.063h-.063s0-.063-.064-.063H304v-.064l.064-.064v-.064c-.064 0-.064 0-.064-.064s.128-.064.128 0c-.064 0 0 .064 0 0v-.191s.064 0 0-.064h-.064c0-.064.128-.064.064-.128 0-.064-.128 0-.064-.064 0 0 .064 0 .064-.064v-.063H304v-.128c.064-.064-.064-.064-.128-.064 0 0-.064.064-.064 0v-.064c.064-.064 0-.128 0-.191h.128v-.064c0-.064-.064-.064-.128 0 0-.064.064-.064 0-.064h-.063v-.064l-.128-.064.064-.064s.064-.127 0-.127c0 0-.064 0-.064-.064v-.128c-.064-.064.064-.064.128-.064l.063-.064h-.127v-.191s0-.064-.064-.064 0 .064 0 .064 0 .064-.064.064h-.064v-.128c0-.064.064 0 .064-.064s-.064-.064-.064-.064c0-.064.064-.064 0-.064 0-.064.128 0 .192 0v-.064s-.064 0-.064-.063v-.064h-.064v-.128h-.064c-.064 0 0-.064 0-.064v-.064h.064s0-.063.064-.063h.064c.064 0 .064-.064.064-.128l-.064.064c0 .064-.064 0-.064 0 0-.064 0-.064.064-.064v-.064l-.064.064s0 .064-.064 0v-.064s-.064 0-.064-.064.064 0 .064-.064v-.127.063h-.128v-.127c0-.064 0-.064-.064-.064v-.064h-.063c-.064 0 0-.064 0-.064l.063-.064h.064l.064-.064v-.064h.064v-.063h-.192.192s.064 0 .064-.064v-.064h-.064s.064-.064 0-.064h-.064l-.064-.064h.064c.064 0 .064-.064 0-.064 0 0-.064 0-.064-.063h-.064v-.064s-.063 0-.063-.064 0-.064.063-.064h.064v-.255s0-.064-.064-.064c0 0-.063.063-.127.063 0 0 .064 0 .064-.063 0 0-.064-.064-.064 0v.063-.063l.064-.064v-.064h-.064c-.064 0 0-.064 0-.064v-.128h.127v-.063h-.063v-.064c0-.064 0-.064.063-.064h-.063s.063 0 .063-.064h-.063v-.128s0-.064.063-.064v-.063s0 .063-.063.063v-.063s0-.064.063-.064c0 0 .064-.064 0-.064h-.063v-.256s-.064 0-.064-.063v-.192h.064v-.255h-.064.064v-.447s0-.064-.064 0v-.192h.064v-.192s.063-.063 0-.063h-.064v-.064s.064 0 .064-.064h.063V40.1h-.063V39.143c0-.063 0 0 .063-.063v-.511c0-.064-.063 0-.063-.064v-.511s-.064-.064 0-.064v-.191h.063v.063s.064 0 .064-.063v-.064l.064-.064h-.064s.064-.064 0-.064v-.128h.064v-.638h-.064v-.064h-.064v-.319l.064-.064v-.064s-.064 0-.064-.064v-.192l.064-.063v-.064l.064-.064v-.128h-.064c-.064 0 0-.064-.064-.064v-.51h-.063v-.064h.127v-.128c-.064 0-.064 0-.064-.064s.064-.064.064-.064v-.255c0-.064.064-.064.064-.064l.064-.064s0-.064.064-.064c0 0 0 .064.064 0 0 0 0-.064.064-.064h.063v-.063h.128s0-.064.064-.064c0 0 .064-.064 0-.064h.255c-.063 0 0-.064.064-.064h.064v-.064l.064-.064s.064 0 .064-.064c0 0 .064 0 .064-.064l.064-.063h.063v-.064l.064-.064h.256l.127-.128c0-.064.064-.064.128-.064h.064l.064-.063c.064-.064.064-.064.128-.064 0 0 .063 0 .063-.064 0 0 .064 0 .064-.064.064 0 .064-.064.128-.128s.128-.064.192-.127h.127v-.064s.064 0 .064-.064h.128c0-.064 0-.064.064-.064 0 0 .064 0 .064-.064 0 0 .063 0 .063-.064l.064-.064h.064s0-.064.064-.064.128-.063.191-.063c.064-.064.128-.064.192-.128h.064l.064-.064s.064 0 .064-.064l.127-.064c.064-.063.064-.064.128-.064s.064-.063.128-.063c0 0 .064 0 .064-.064 0 0 .063 0 .063-.064.064 0 .064-.064.128-.064s.128-.064.192-.128c.064 0 .127-.063.127-.063l.064-.064s.064 0 .064-.064v-.064h.128l.064-.064c.064-.064.127-.064.191-.128.128-.063.192-.127.32-.191.063 0 .063-.064.127-.064s.128-.064.192-.064c.128-.064.191-.128.319-.191.064-.064.128-.064.192-.128s.127-.064.191-.064c.064-.064.128-.064.192-.128.064 0 .128-.064.128-.064.063-.063.063-.063.127-.063s.128-.064.128-.064l.064-.064h.064l.064-.064s.063 0 .063-.064c0 0 .064 0 .064-.064 0 0 .064 0 .064-.064.064 0 .064-.063.128-.063l.064-.064s.064 0 .064-.064l.063-.064h.064v-.064h.064s.064 0 .064-.064c.064-.064.064-.064.128-.064s.127-.063.191-.063c0 0 0-.064.064-.064 0 0 .064 0 .064-.064.064 0 .128-.064.191-.128.128-.064.192-.127.32-.127 0 0 .064 0 .064-.064l.127-.064.064-.064c.064 0 .128-.064.128-.064.064 0 .128-.064.128-.064h.063l.064-.064s.128 0 .128-.063h.128s.064-.064.127-.064h.064l.064-.064.064-.064s.064-.064.064 0l.064-.064s.064 0 .064-.064c.063 0 .127-.064.127-.064l.064-.064.128-.063.064-.064c.064 0 .127-.064.191-.064l.064-.064c0-.064 0-.064.064-.064h.128c0-.064.127-.064.127-.064l.064-.064s.064 0 .064-.063c.064-.064.064-.064.128-.064 0 0 .064 0 .064-.064 0 0 0-.064.064-.064h.191c.064 0 .128-.064.192-.064s.064-.064.127-.064c.064 0 0 0 .064-.064h.128c.064-.063.128-.063.192-.063.063 0 .127-.064.191-.064s.128-.064.128-.064c.064 0 .128-.064.191-.064.064-.064.128-.064.192-.128 0-.063.064-.063.128-.063h.064l.063-.064h.064s.128-.064.192-.064c0 0 .064 0 .064-.064.063 0 .063 0 .063-.064h.128c.064 0 .064-.064.128-.064h.064l.064-.064c.063 0 .063-.063.127-.063 0 0 .064 0 .064-.064h.064l.128-.064.064-.064c.063 0 .127-.064.127-.064l.064-.064h.064c.064 0 .128-.064.128-.064.064-.063.127-.063.191-.127.064 0 .128-.064.192-.064 0 0 .064 0 .064-.064h.064c.063 0 .127-.064.127-.064s.064 0 .064-.064c.064 0 .064 0 .064-.064.064 0 .128-.063.192-.063.063 0 .127-.064.191-.064s.128-.064.128-.064c.064 0 .128 0 .128-.064.063 0 .127-.064.127-.064l.064-.064h.064l.064-.063c.064 0 .064 0 .064-.064.064 0 .127-.064.127-.064.064 0 .128-.064.192-.064l.064-.064h.064c.064 0 .064-.064.127-.064.064 0 .064 0 .128-.064.064 0 .064-.064.128-.064h.128s.063-.063.127-.063.064-.064.128-.064c.128-.064.255-.064.383-.128.064 0 .128-.064.192-.064s.319-.128.447-.128c.127-.063.255-.063.383-.127.064 0 .127-.064.191-.064s.128 0 .192-.064c.128-.064.255-.064.383-.128.064 0 .128 0 .192-.064.063-.063.191-.063.255-.127.128-.064.192-.064.319-.128.064 0 .064-.064.128-.064s.255-.127.319-.191c.064 0 .128-.064.128-.064.128-.064.192-.192.319-.192h.064l.064-.064s.064 0 .064-.063c.064 0 .064 0 .064-.064 0 0 .064 0 .064-.064.063-.064.063-.128.127-.192 0-.064.064-.064.064-.128l.064-.063v-.128h.064s0 .064.064.064c0 0-.064-.064 0-.064v-.128c.064 0 .064 0 .064-.064s.063-.127.063-.127v.064-.128s0-.064.064-.064v-.064h.064l.064-.064s-.064 0-.064-.064c1.086-1.34 1.086-1.34 1.086-1.404ZM308.533 12.58c0 .063 0 .063.064.127v.128l.192.192s.064.063.128.063c.063 0 .063 0 .127.064s.128.064.256.064H309.874l.064-.064c.064 0 .128-.064.192-.064l.064-.063h.127s0-.064.064-.064c0 0 .064 0 .064-.064.064 0 .064-.064.128-.064l.191-.192c0-.063.064-.063.064-.127s.064-.064.064-.128c0 0 .064-.064.064-.128s.064-.064.128-.127l.127-.128c0-.064.064-.064.128-.064v-.128l.064-.064v-.063l.064-.064v-.319c0-.064 0-.064.064-.128l.064-.064v-.256c-.064 0-.064-.063 0-.127v-.064c0-.064 0-.064-.064-.064l-.064-.064v-.064l-.064-.063s0-.064-.064-.064v-.064l-.064-.064h-.958c-.063 0-.063 0-.127.064-.064 0-.064 0-.128.064h-.128c-.064 0-.064 0-.127.063h-.064s-.064.064-.128.064h-.064l-.064.064h-.127l-.064.064h-.128v.064l-.064.064s0 .064-.064.064h-.064v.127h-.063l-.064.064v.064l-.064.064v.128c-.064.063-.064.063-.064.127v.064s0 .128-.064.128v.511c0 .064.064.064.064.064-.192.319-.192.383-.192.447ZM287.462 27.203c-.128 0-.128-.128-.192-.128-.063 0-.063-.191 0-.191l-.063-.064c0-.064-.064-.064-.064-.128s0-.192-.064-.256l-.128-.127v-.128c-.064 0-.128-.064-.128-.064h-.191c-.128 0-.256 0-.319.064-.192.064-.384.128-.575.255-.064.064-.128.064-.192.128-.064 0-.127.064-.191.128h-.128l-.064.064c-.064.064-.128.064-.128.128-.063 0-.127.127-.191.191s-.128.192-.192.255c-.064.192-.191.384-.255.575 0 .064-.064.128-.064.256 0 .063 0 .255-.064.255.064.128 0 .192 0 .32 0 .127-.064.255-.064.382v.447c0 .128-.064.256-.064.383 0 .064-.063.384 0 .447 0 .064-.063.064-.063.128v.703c0 .191 0 .447-.064.638v.766c-.128-.127-.064.192 0 .256 0 .064-.064.128-.064.191 0 .064.064.128 0 .192 0 .128-.064.255-.064.32 0 .127-.064.255-.064.382v.384c0 .191-.064.447 0 .638v.766c0 .128-.064.256-.064.383v.767c0 .064.064.191 0 .255.064.064 0 .128 0 .192s.064.127.064.127c0 .064.064.064.064.128s.064.064.064.128c.064 0 0 .064.064.064l.064.064c.063 0 .127.063.127.063a.697.697 0 0 0 .32.064h.063c.064 0 .064 0 .064-.064h.192s0-.063.064-.063c0 0 .064 0 .064-.064.063 0 .127-.064.127-.064.064-.064.128-.064.256-.128.064 0 .127-.064.127-.127l.128-.128c.064 0 .064-.064.128-.064l.191-.192c.064-.064 0-.127.128-.064.064 0 .128.064.128 0 .064-.063 0-.127.064-.191 0 .064.064.064.064.064h.063v-.064c0-.064.064-.128.064-.128 0-.127-.064-.064-.191-.064-.064 0 0 0-.064-.063v-.128c0-.064.064-.128.128-.192v-.191s0-.064.063-.064v-.383s-.063-.064 0-.064c0 0 0-.064.064-.064 0-.064 0-.064.064-.128v-.127s.064-.128 0-.128c0-.064 0-.192-.064-.256 0-.064.064-.127.064-.191v-.192c0-.064.064-.064.064-.127V33.333c0-.064.064-.128.064-.192v-.191c0-.064.064-.064.064-.128v-.319s0-.064.064-.064c0-.064 0-.128.063-.192V31.673l.064-.064c.064-.064 0-.192.064-.256v-.064l.064-.063v-.575c0-.064 0-.128.064-.192V29.885c0-.064.064-.064.064-.128s0-.128.064-.192c0-.064.063-.127.063-.191s-.063-.128 0-.192c0 0 .064 0 .064-.064v-.063c0-.064 0-.064.064-.128v-.256l-.064-.063v-.128c0-.064.064-.128.064-.192s.064-.127.064-.127c0-.064-.064-.064-.064-.128v-.128c0-.064.064-.064.064-.064h-.064c-.064 0-.064-.127-.064-.127-.064-.064-.064-.128-.064-.192v-.255c.064 0 .192 0 .192-.064Z"/><path d="M333.373 31.161H311.28a6.295 6.295 0 0 0-6.322 6.322 6.295 6.295 0 0 0 6.322 6.322h22.093a6.295 6.295 0 0 0 6.322-6.322c0-3.512-2.873-6.322-6.322-6.322Zm-17.049 8.749c0 .255-.128.447-.319.51-.064 0-.128.064-.192.064s-.127 0-.191-.064c-.192-.063-.32-.255-.32-.51v-2.874c0-.32-.127-.639-.447-.702-.127-.064-.255-.064-.383-.064-.191 0-.319 0-.447.064-.127.063-.319.063-.447.191v3.385c0 .255-.127.447-.319.51-.064 0-.128.064-.192.064a.572.572 0 0 1-.574-.574v-2.938c0-.383-.192-.638-.511-.702-.128-.064-.255-.064-.383-.064-.319 0-.511.064-.703.128v3.576c0 .127-.063.319-.191.383-.128.127-.256.191-.383.191-.128 0-.256-.064-.383-.191-.128-.064-.192-.192-.192-.383v-4.087c.255-.128.511-.192.766-.256.32-.063.639-.063 1.022-.063s.702.063.958.127c.255.064.447.256.574.383.064-.064.192-.127.256-.191.319-.192.702-.32 1.277-.32.128 0 .255 0 .383.064.256.064.447.128.639.256.064.064.191.127.255.191.128.128.256.32.319.447.064.192.128.383.128.575v2.874Zm4.023.255c-.319.255-.702.447-1.213.447-.192 0-.32 0-.511-.064-.766-.191-1.213-.702-1.405-1.469-.064-.319-.128-.638-.128-1.021 0-.383.064-.703.128-1.022.192-.766.702-1.34 1.405-1.469.128-.063.319-.063.511-.063.702 0 1.213.255 1.532.702.32.447.511 1.085.511 1.788-.064.958-.319 1.724-.83 2.171Zm4.853-.32c-.383.448-1.022.703-1.724.703-.575 0-1.022-.064-1.341-.191-.128-.064-.192-.064-.255-.128v-6.322c0-.128.063-.32.191-.383.128-.064.255-.191.383-.191.064 0 .128 0 .192.063.064 0 .127.064.191.128.064.128.128.255.128.383v1.788c.064 0 .128-.064.192-.064.127-.064.255-.064.447-.127h.319c.128 0 .255 0 .383.063.383.064.702.32.958.639.319.447.511 1.022.511 1.724.064.83-.192 1.469-.575 1.916Zm2.554.065c0 .319-.255.574-.511.574-.063 0-.127 0-.191-.064-.192-.063-.319-.255-.319-.51v-3.768c0-.32.255-.575.51-.575.256 0 .447.128.511.32 0 .063.064.127.064.191v3.832h-.064Zm-.319-5.237c-.064 0-.128.064-.255.064-.064 0-.192 0-.256-.064-.191-.063-.383-.255-.383-.51 0-.256.128-.447.383-.511.064 0 .128-.064.256-.064.063 0 .191 0 .255.064.191.064.383.255.383.51 0 .256-.128.448-.383.511Zm1.916 5.811h-.064c-.32 0-.511-.255-.511-.574v-6.003c0-.32.255-.51.511-.51.319 0 .511.255.511.574v6.002c.063.256-.128.511-.447.511Zm5.236-.255c-.064.064-.192.064-.32.128-.319.127-.766.191-1.34.191-.511 0-.958-.128-1.341-.383-.128-.064-.256-.192-.32-.255-.383-.447-.638-1.086-.638-1.916 0-1.213.447-2.044 1.213-2.363.128-.064.255-.127.383-.127s.319-.064.447-.064c.319 0 .639.064.83.191.383.192.639.447.83.83.192.383.256.894.256 1.533l-3.001.447c.063.447.191.766.383 1.022.191.255.511.319.958.319.383 0 .702-.064.957-.128.064 0 .128-.064.192-.064s.128-.064.191-.064h.128c.128.064.256.192.256.32.127.191.063.319-.064.383Z"/><path d="M319.07 36.206c-.767 0-.958.894-.958 1.852 0 .894.191 1.788.958 1.788.766 0 .957-.83.957-1.788 0-.958-.127-1.852-.957-1.852ZM332.736 36.206c-.639 0-1.086.511-1.086 1.724l2.043-.319c0-1.022-.319-1.405-.957-1.405ZM323.603 36.142c-.319 0-.511.064-.638.128v3.448c.127.064.383.128.574.128.894 0 1.213-.767 1.213-1.916-.063-.958-.319-1.788-1.149-1.788Z"/><path d="M319.07 39.91c-.767 0-.958-.894-.958-1.852 0-.958.127-1.852.958-1.852.766 0 .957.894.957 1.852 0 .958-.127 1.852-.957 1.852Z"/></g><path d="M498.106 31.942h-3.735V18.724h-4.879V15.55h13.492v3.173h-4.878v13.22ZM518 15.55h-3.811v16.392H518V15.55ZM584.774 28.694h6.555v3.248h-10.367V15.55h3.812v13.144ZM534.236 28.77h2.364c3.125 0 5.259-1.964 5.259-5.061 0-2.946-2.134-4.91-5.183-4.91h-2.44v9.97Zm-3.658-13.22h6.098c4.498 0 8.994 2.342 8.994 8.159 0 5.439-4.42 8.233-8.766 8.233h-6.326V15.55ZM559.543 25.824l2.516-6.421 2.439 6.42h-4.955Zm7.242 6.118h4.192l-6.86-16.392h-3.888l-6.86 16.392h4.04l1.22-3.248h7.012l1.144 3.248ZM459.334 13.163l-4.85 4.808 4.851 4.807 4.851-4.808-4.852-4.807Z" fill="#282828"/><path d="m459.323 22.762-4.851 4.808 4.851 4.807 4.851-4.807-4.851-4.808ZM449.65 13.151l-4.851 4.807 4.851 4.808 4.851-4.808-4.851-4.807ZM469.021 13.175l-4.851 4.808 4.852 4.807 4.85-4.808-4.851-4.807Z" fill="#282828"/><g clip-path="url('#clip2_1_82')" fill="#000"><path d="M695 24.313v12.303h4.88V26.586l1.87.06 1.87.059 2.87 4.94 2.85 4.942 2.81.03c1.52 0 2.78-.04 2.78-.1 0-.058-1.3-2.342-2.87-5.068-1.59-2.727-2.91-5-2.95-5.07-.04-.078.44-.373 1.09-.698 1.49-.728 2.99-2.096 3.63-3.337.89-1.761.94-4.862.08-6.506-.89-1.702-2.97-3.14-5.26-3.621-.65-.138-3.52-.227-7.36-.227H695v12.323Zm12.95-7.697c1.12.502 1.69 1.398 1.69 2.697 0 1.2-.51 2.126-1.46 2.638-.57.295-1.28.374-4.47.423l-3.82.079v-6.26h3.61c3.11.02 3.72.079 4.45.423ZM772.65 24.52v12.106h4.68V12.413h-4.68V24.52ZM798.5 23.752c.06 9.33.06 9.37.53 10.305.53 1.063 1.79 2.264 2.81 2.677.44.177 1.46.276 2.92.276H807v-3.996h-1.3c-.99 0-1.4-.099-1.83-.424l-.53-.403V22.807H807v-3.8h-3.66v-4.606h-4.9l.06 9.35Z"/><path d="M721.18 18.988c-1.65.541-2.77 1.23-3.96 2.46-1.22 1.3-1.79 2.304-2.2 4.007-1.09 4.567.91 8.937 4.98 10.836 1.26.6 1.42.63 3.96.63 2.27 0 2.81-.059 3.82-.472 1.42-.561 3.32-2.205 4.07-3.563l.53-.975-1.63-.935c-.89-.521-1.7-.935-1.79-.935-.08 0-.43.404-.79.876-.81 1.162-1.91 1.86-3.25 2.126-1.19.227-2.06.099-3.09-.423-1.22-.6-2.44-2.175-2.44-3.18 0-.403.08-.403 6.71-.403h6.71v-1.673c0-3.838-1.8-6.673-5.18-8.14-1.45-.669-4.81-.767-6.45-.236Zm5.49 3.908c.53.364 1.04.935 1.36 1.604l.53 1.024-4.51.059c-2.48.03-4.55 0-4.61-.06-.28-.275 1.18-2.066 2.2-2.667 1.04-.63 1.22-.66 2.67-.6 1.28.059 1.65.138 2.36.64ZM758.04 18.92c-2.62.728-5.04 2.627-6.03 4.763-.71 1.565-1.02 3.967-.71 5.778.79 4.734 4.34 7.569 9.55 7.569 3.05 0 5.08-.729 7.05-2.461 1.14-1.024 1.91-2.303 2.41-4.026.43-1.466.33-4.734-.18-6.132-.84-2.263-3.05-4.36-5.55-5.236-1.55-.56-4.97-.689-6.54-.256Zm4.95 4.468c2.85 1.24 3.79 4.98 1.87 7.46-1.36 1.762-4.23 2.422-6.16 1.428-1.05-.561-2.2-1.802-2.52-2.766-.41-1.2-.17-3.337.47-4.272 1.44-2.145 3.94-2.864 6.34-1.85ZM732.67 19.293c.06.138 1.69 4.105 3.62 8.8l3.52 8.543 2.21-.06 2.21-.058 3.43-8.307c1.89-4.567 3.49-8.504 3.56-8.77l.13-.463-2.48.06-2.5.058-2.16 5.64c-1.18 3.1-2.21 5.581-2.27 5.502-.08-.078-1.08-2.638-2.24-5.699L737.59 19h-2.52c-2.03.019-2.49.078-2.4.294ZM779.76 24.48c0 3.081.1 5.975.23 6.644.44 2.441 1.77 4.124 4.03 5.177 1.3.6 1.45.63 4.09.63 2.58 0 2.82-.04 3.96-.56 2.26-1.034 3.7-2.865 4.14-5.237.13-.66.23-3.563.23-6.644v-5.462h-4.65l-.06 5.443c-.06 5.226-.08 5.502-.53 6.299-.65 1.2-1.75 1.722-3.39 1.624-1.46-.079-2.3-.571-2.87-1.703-.34-.68-.38-1.358-.44-6.23l-.06-5.443h-4.65v5.462h-.03Z"/></g><g clip-path="url('#clip3_1_82')" fill="#000"><path d="M919.847 40.164h.071l3.229-11.669c.365-1.305 1.126-2.617 2.539-2.293 1.866.433 1.866 1.169 1.866 1.8 0 .422-.147.954-.403 1.623l-5.279 17.413c-1.273 3.522-2.725 5.36-6.063 5.36-2.36 0-3.338-1.125-3.338-2.365 0-1.371 1.576-2.063 2.99-2.063h.544c.69 0 1.538-.367 1.941-1.958l-7.292-15.026c-.435-1.229-.652-1.794-.652-2.392 0-1.41.201-1.745 1.74-2.332 1.071-.411 2.398.774 2.724 1.942l5.383 11.96ZM961.893 28.622c0-1.63.701-2.496 2.207-2.496 1.441 0 2.213.867 2.213 2.496v.834h.065c.805-2.244 2.779-3.33 5.155-3.33 4.083 0 7.666 3.22 7.666 10.056 0 5.063-2.376 9.803-7.53 9.803-2.24 0-3.921-.976-4.818-2.677h-.065v7.055c0 1.74-.973 2.644-2.447 2.644-1.473 0-2.446-.905-2.446-2.644v-21.74Zm10.711 1.147c-2.952 0-4.067 3.055-4.067 6.396 0 3.018.973 6.562 4.067 6.518 3.23 0 4.029-3.78 4.029-6.518 0-3.461-1.321-6.32-4.029-6.396ZM951.393 22.34c0-1.766.962-2.688 2.425-2.688 1.462 0 2.425.922 2.425 2.688v22.065c0 1.767-.963 2.683-2.425 2.683-1.463 0-2.425-.922-2.425-2.683V22.34ZM934.533 37.8c0 2.864 1.56 4.949 4.208 4.949 3.431 0 3.431-2.678 5.275-2.678 1.092 0 1.87 1.12 1.87 2.124 0 3.275-4.399 4.8-7.145 4.8-6.361 0-8.764-5.135-8.764-9.864 0-6.325 3.213-10.571 8.607-10.571 5.241 0 8.237 4.427 8.237 8.892 0 1.86-.467 2.343-1.995 2.343h-10.293v.005Zm7.503-2.93c-.266-2.775-1.941-4.805-4.116-4.805-2.441 0-3.914 1.865-4.453 4.806h8.569ZM1016.73 9.602c-.18.434-.42.806-.74 1.12a3.466 3.466 0 0 1-2.45 1.014 3.466 3.466 0 0 1-2.46-1.015 3.33 3.33 0 0 1-.75-1.119c-.19-.433-.28-.9-.28-1.399 0-.488.09-.949.28-1.377.18-.428.43-.795.75-1.108a3.467 3.467 0 0 1 2.46-1.015 3.467 3.467 0 0 1 2.45 1.015c.32.313.56.68.74 1.108.18.428.27.883.27 1.377 0 .5-.09.966-.27 1.4Zm-.51-2.59a3.247 3.247 0 0 0-.61-.976 2.822 2.822 0 0 0-.92-.653 2.642 2.642 0 0 0-1.14-.241c-.4 0-.79.082-1.14.241-.35.16-.66.379-.92.653a3.192 3.192 0 0 0-.85 2.161 3.193 3.193 0 0 0 .85 2.184 2.813 2.813 0 0 0 2.08.905c.4 0 .77-.082 1.12-.241.36-.16.66-.379.92-.658.25-.275.46-.598.61-.977a3.228 3.228 0 0 0 0-2.397Zm-1.69 3.237c-.1-.137-.21-.466-.3-.998-.05-.269-.15-.46-.29-.57-.14-.11-.35-.165-.62-.165h-.47v1.733h-.51V6.327c.18-.022.34-.038.5-.06.15-.022.32-.033.52-.033.27 0 .51.027.7.082.2.06.35.126.47.214.24.176.36.444.36.795 0 .27-.08.483-.23.642-.16.154-.34.264-.55.33v.032c.36.06.58.379.68.955.05.302.1.521.14.664.04.142.08.241.12.307h-.52v-.006Zm-.4-3.368c-.15-.159-.43-.241-.83-.241-.1 0-.19 0-.26.01-.08.006-.14.012-.19.023v1.47h.49c.27 0 .51-.055.71-.165.21-.11.31-.301.31-.57a.758.758 0 0 0-.23-.527ZM998.85 24.67c-.647.66-.097 1.855-.097 1.855l4.867 8.202s.8 1.08 1.49 1.08 1.38-.576 1.38-.576l3.85-5.552s.38-.702.4-1.31c.01-.873-1.29-1.114-1.29-1.114l-9.12-2.952s-.887-.236-1.48.368ZM998.388 20.532c.467.796 1.752.565 1.752.565l9.09-2.682s1.24-.51 1.41-1.185c.18-.68-.2-1.498-.2-1.498l-4.35-5.162s-.37-.653-1.16-.719c-.85-.071-1.39.977-1.39.977l-5.136 8.152c.011.01-.446.823-.016 1.552ZM994.092 17.358c1.071-.264 1.239-1.833 1.239-1.833l-.07-13.056s-.163-1.613-.881-2.047c-1.126-.69-1.457-.329-1.783-.28l-7.547 2.831s-.74.247-1.126.867c-.549.883.56 2.173.56 2.173l7.846 10.785c0-.005.778.806 1.762.56ZM992.228 22.642c.027-1.01-1.197-1.613-1.197-1.613l-8.112-4.136s-1.202-.5-1.783-.154c-.446.269-.843.752-.881 1.174l-.528 6.561s-.081 1.136.212 1.657c.414.735 1.773.225 1.773.225l9.472-2.112c.364-.247 1.011-.269 1.044-1.602ZM994.589 26.186c-.816-.423-1.784.45-1.784.45l-6.34 7.044s-.794 1.075-.587 1.739c.19.62.506.927.946 1.146l6.367 2.03s.772.16 1.359-.01c.832-.242.68-1.553.68-1.553l.141-9.535c-.01-.006-.043-.927-.782-1.311Z"/></g><g clip-path="url('#clip4_1_82')" fill="#1D1D1B"><path d="M1121.99 13.467h-1.33c-.16-1.154-.08-1.401 3.83-1.401h5.48c7.81 0 11.14 3.46 11.14 9.228 0 5.52-3.16 9.228-10.89 9.228h-10.14a2.42 2.42 0 0 1 0-1.071c2.91-.165 3.41-.33 3.41-2.142V14.62c0-.988-.33-1.153-1.5-1.153Zm15.54 8.321c0-5.108-2.66-8.156-7.89-8.156h-2.83v13.43c0 1.647.59 1.894 3.08 1.894 4.65.083 7.64-1.4 7.64-7.168ZM1154.15 12.231c.09.577.25 1.071.67 1.977l6.23 14.09c.33.659.58.906 2 .906h.58c.16.741 0 1.236-.67 1.236h-8.72c-.09-.247-.09-.66 0-1.071 2.91-.083 3.24-.33 2.91-.99l-1.67-4.036h-6.98l-1.08 2.883c-.58 1.566-.58 1.978.83 1.978h2.33c.17.741 0 1.236-.66 1.236h-7.73c-.09-.247-.09-.66 0-1.071 2.08-.248 2.32-.412 3.07-2.143l5.32-12.523c.92-2.06 1.25-2.472 2.49-2.472h1.08Zm.67 10.711-2.91-6.921-2.82 6.921h5.73ZM1174.35 12.56c.08.248.08.742 0 1.072-2.33.165-2.66.659-2.66 1.813v12.688c0 .906.25 1.154 1.41 1.154h1.5c.16.741.08 1.235-.67 1.235h-8.22c-.09-.247-.09-.659 0-1.07 2.16-.33 2.66-.578 2.66-1.73V14.95c0-.989-.25-1.153-1.5-1.153h-1.33c-.17-.66 0-1.236 1.16-1.236h7.65ZM1205.43 12.56c.08.33.08.66 0 1.072-2.49.165-2.66.577-2.58 1.4l1.33 13.101c.09.824.5.906 2.58 1.236.08.741 0 1.236-.75 1.236h-9.55c-.09-.33-.09-.66 0-1.071l1.49-.083c2.24-.165 2.66-.412 2.49-1.73l-1.24-11.782-6.48 13.512c-.5.989-.67 1.154-1.33 1.154l-7.48-14.584-.83 12.03c-.09 1.07-.09 1.318 2.74 1.318h1.49c.17.741.09 1.236-.66 1.236h-8.89c-.09-.33-.09-.66 0-1.071 2.99-.165 3.24-.66 3.32-1.813l1.08-12.606c.08-.824-.08-1.154-2.74-1.236-.17-.577 0-1.236 1.16-1.236h5.49l6.81 12.853 6.23-12.853h6.32v-.082ZM1220.3 12.56c.09.248.09.742 0 1.072-2.82.165-3.4.412-3.4 2.142V27.64c0 .906.5 1.153 1.24 1.153h1.75c1.99 0 2.24-.165 3.41-2.554l.74-1.648c.75 0 1.17.33.92 1.154-.58 1.565-1.08 3.13-1.41 4.778h-13.22c-.08-.33-.08-.659 0-1.07 2.66-.166 3.24-.495 3.24-2.225V14.95c0-.989-.33-1.153-1.49-1.153h-1.33c-.17-.66 0-1.236 1.16-1.236h8.39ZM1242.24 12.56c.09 1.237.25 2.472.42 3.626.17.824-.17 1.318-1.08 1.236l-.25-1.236c-.5-1.648-1-2.06-2.49-2.06h-4.32v6.839h2.82c.83 0 1-.247 1.08-.989l.17-1.4h.33c.5 0 .83.164.75.988a51.52 51.52 0 0 0 0 5.273c-.25.082-.67.165-.92 0-.33-2.06-.66-2.307-1.41-2.307h-2.82v4.697c0 .988.25 1.4 2.07 1.4h2.33c2 0 2.24-.165 3.41-2.554l.75-1.648c.74 0 1.16.33.91 1.154-.58 1.565-1.08 3.13-1.41 4.779h-14.88c-.08-.33-.08-.66 0-1.072 2.83-.164 3.41-.33 3.41-2.142V14.785c0-.988-.25-1.153-1.5-1.153h-1.33c-.08-.66 0-1.236 1.17-1.236h12.79v.165ZM1248.89 13.797h-1.33c-.16-.66 0-1.236 1.08-1.319 1.33-.082 2.91-.082 6.73-.082 5.16 0 8.07 2.472 8.07 6.097 0 2.225-1.42 4.037-3.66 5.026 0 0 1.99 1.813 3.07 2.637 3.58 2.8 4.74 3.048 7.07 3.048.25.906-.42 1.648-3.33 1.648-2.49 0-4.15-.577-6.15-2.225-.91-.741-1.82-1.812-2.57-3.048-.67-1.236-.75-1.319-2.41-1.319h-1.66v3.955c0 .742.25 1.071 1.66 1.071h1.41c.08.742 0 1.236-.75 1.236h-8.47c-.09-.33-.09-.659 0-1.07 2.32-.166 2.9-.413 2.9-2.06v-12.36c-.16-1.07-.49-1.235-1.66-1.235Zm6.15 8.98c2.66 0 4.82-.412 4.82-4.037s-2.16-4.779-5.23-4.779h-.83v8.816h1.24Z"/></g><defs><clipPath id="clip0_1_82"><path fill="#fff" transform="translate(27)" d="M0 0h138v53H0z"/></clipPath><clipPath id="clip1_1_82"><path fill="#fff" transform="translate(268)" d="M0 0h72v53H0z"/></clipPath><clipPath id="clip2_1_82"><path fill="#fff" transform="translate(695 12)" d="M0 0h112v25H0z"/></clipPath><clipPath id="clip3_1_82"><path fill="#fff" transform="translate(910)" d="M0 0h107v53H0z"/></clipPath><clipPath id="clip4_1_82"><path fill="#fff" transform="translate(1120 12)" d="M0 0h150v19H0z"/></clipPath></defs></svg>