<svg width="116" height="25" fill="none" xmlns="http://www.w3.org/2000/svg"><g clip-path="url('#clip0_1_308')" fill="#000"><path d="M0 12.313v12.303h5.02V14.586l1.924.06 1.924.058 2.952 4.941 2.932 4.941 2.89.03c1.564 0 2.86-.04 2.86-.099 0-.059-1.337-2.342-2.952-5.069-1.636-2.726-2.994-5-3.035-5.069-.04-.078.453-.373 1.121-.698 1.533-.729 3.076-2.097 3.735-3.337.915-1.762.967-4.862.082-6.506-.915-1.703-3.055-3.14-5.411-3.622-.669-.138-3.621-.226-7.571-.226H0v12.323Zm13.322-7.697c1.152.502 1.738 1.397 1.738 2.697 0 1.2-.524 2.126-1.502 2.637-.586.296-1.316.374-4.598.424l-3.93.078v-6.26h3.714c3.2.02 3.827.08 4.578.424ZM79.88 12.52v12.106h4.814V.413H79.88V12.52ZM106.472 11.751c.062 9.331.062 9.37.545 10.306.546 1.063 1.842 2.263 2.891 2.677.453.177 1.502.275 3.004.275h2.304v-3.996h-1.337c-1.018 0-1.44-.098-1.883-.423l-.545-.404v-9.379H115.216v-3.8H111.451V2.401H106.411l.061 9.35Z"/><path d="M26.932 6.988c-1.698.541-2.85 1.23-4.074 2.46-1.255 1.3-1.841 2.304-2.263 4.006-1.121 4.567.936 8.937 5.123 10.837 1.296.6 1.46.63 4.074.63 2.335 0 2.89-.06 3.93-.473 1.46-.56 3.415-2.204 4.186-3.563l.545-.974-1.676-.935c-.916-.522-1.75-.935-1.842-.935-.082 0-.442.404-.813.876-.833 1.161-1.964 1.86-3.343 2.126-1.224.226-2.119.098-3.178-.423-1.256-.6-2.51-2.175-2.51-3.18 0-.403.082-.403 6.902-.403h6.903v-1.673c0-3.839-1.852-6.673-5.329-8.14-1.492-.67-4.948-.768-6.635-.236Zm5.648 3.907c.545.364 1.07.935 1.398 1.605l.546 1.023-4.64.06c-2.551.029-4.68 0-4.742-.06-.288-.275 1.214-2.067 2.263-2.667 1.07-.63 1.255-.66 2.747-.6 1.316.059 1.697.137 2.428.64ZM64.85 6.92c-2.695.727-5.184 2.627-6.203 4.763-.73 1.565-1.05 3.966-.73 5.777.813 4.735 4.464 7.57 9.824 7.57 3.138 0 5.226-.729 7.252-2.461 1.173-1.024 1.965-2.303 2.48-4.026.442-1.466.34-4.734-.186-6.132-.864-2.264-3.137-4.36-5.709-5.236-1.594-.561-5.113-.689-6.728-.256Zm5.093 4.468c2.931 1.24 3.898 4.98 1.923 7.46-1.399 1.762-4.351 2.422-6.337 1.427-1.08-.56-2.263-1.8-2.592-2.765-.422-1.201-.175-3.337.483-4.272 1.482-2.146 4.054-2.864 6.522-1.85ZM38.752 7.293c.061.138 1.738 4.105 3.724 8.8l3.62 8.543 2.274-.06 2.274-.058 3.528-8.308c1.945-4.566 3.59-8.503 3.663-8.77l.133-.462-2.551.06-2.572.058-2.222 5.64c-1.214 3.1-2.273 5.58-2.335 5.502-.082-.079-1.111-2.638-2.304-5.699l-2.17-5.541H41.22c-2.089.02-2.562.079-2.47.295ZM87.194 12.48c0 3.08.103 5.974.237 6.644.452 2.44 1.82 4.124 4.145 5.177 1.338.6 1.492.63 4.208.63 2.654 0 2.9-.04 4.074-.561 2.324-1.034 3.806-2.864 4.258-5.237.134-.659.237-3.563.237-6.643V7.027H99.57l-.062 5.443c-.062 5.226-.082 5.502-.545 6.3-.67 1.2-1.8 1.722-3.488 1.623-1.502-.079-2.366-.57-2.952-1.703-.35-.679-.391-1.358-.453-6.23l-.061-5.443h-4.784v5.463h-.03Z"/></g><defs><clipPath id="clip0_1_308"><path fill="#fff" d="M0 0h115.216v25H0z"/></clipPath></defs></svg>