<svg width="481" height="168" fill="none" xmlns="http://www.w3.org/2000/svg"><g clip-path="url('#clip0_1_324')" fill="#1D1D1B"><path d="M89.23 30.257c1.164 0 2.457 0 3.62.386l-3.62 7.072c-5.43-.386-10.214 3.985-10.602 9.642-.258 5.657 3.88 10.543 9.439 10.8h1.163c2.457 0 4.784-.9 6.594-2.442l3.879 6.814A17.735 17.735 0 0 1 89.101 66C79.533 66.257 71.388 58.93 71 48.9c-.259-9.9 6.982-18.257 16.679-18.643h1.551Z"/><path d="m93.11 45.557-4.526 7.714h8.792l4.137 7.458 4.525-7.458-4.525-7.714h-8.404ZM94.273 42.729c0-1.286.258-2.443.905-3.472.646-.9 1.81-1.928 2.715-2.443l.646-.385c1.164-.643 1.552-.9 1.552-1.543 0-.643-.905-1.286-1.552-1.286-1.163 0-2.198.643-2.715 1.929l-1.551-1.415c.258-.642.905-1.285 1.551-1.928.905-.643 1.81-.643 2.715-.643.905 0 2.198.386 2.716.9.517.643 1.163 1.543 1.163 2.443 0 1.543-.905 2.828-2.715 3.471l-.905.643c-.905.643-1.552.9-1.81 1.929h5.43v2.185c0-.128-8.145-.385-8.145-.385Z"/></g><path d="M76.205 137.135c-1.24 0-2.195-.345-2.865-1.035-.66-.7-.99-1.705-.99-3.015v-6.81h1.305v6.66c0 .56.05 1.04.15 1.44.1.39.255.71.465.96.21.25.475.435.795.555.33.11.72.165 1.17.165.43 0 .81-.05 1.14-.15.34-.1.625-.275.855-.525.24-.25.42-.585.54-1.005.13-.43.195-.975.195-1.635v-6.465h1.305v6.645c0 1.31-.335 2.34-1.005 3.09-.66.75-1.68 1.125-3.06 1.125Zm11.07 0c-.72 0-1.33-.09-1.83-.27a3.58 3.58 0 0 1-1.215-.75 3.19 3.19 0 0 1-.735-1.08 5.084 5.084 0 0 1-.315-1.305h1.26c.04.32.11.625.21.915.1.28.255.53.465.75.21.21.485.38.825.51.35.12.795.18 1.335.18.34 0 .66-.045.96-.135.3-.1.56-.24.78-.42.22-.18.39-.395.51-.645.13-.25.195-.525.195-.825 0-.3-.04-.56-.12-.78-.08-.23-.22-.425-.42-.585-.19-.16-.455-.295-.795-.405a8 8 0 0 0-1.26-.285c-.56-.09-1.065-.205-1.515-.345-.44-.14-.815-.32-1.125-.54a2.27 2.27 0 0 1-.705-.84c-.16-.34-.24-.75-.24-1.23 0-.41.085-.79.255-1.14.17-.36.405-.67.705-.93.31-.26.675-.465 1.095-.615.42-.15.885-.225 1.395-.225 1.08 0 1.935.255 2.565.765.64.5 1.015 1.23 1.125 2.19h-1.17c-.13-.68-.395-1.165-.795-1.455-.4-.3-.975-.45-1.725-.45-.74 0-1.3.165-1.68.495-.37.32-.555.735-.555 1.245 0 .26.03.495.09.705.07.2.195.375.375.525.19.15.45.285.78.405a8.4 8.4 0 0 0 1.335.285c.6.09 1.125.21 1.575.36.45.15.83.345 1.14.585.31.24.54.535.69.885.16.35.24.78.24 1.29 0 .45-.095.87-.285 1.26a3.09 3.09 0 0 1-.765 1.005c-.33.28-.725.5-1.185.66-.45.16-.94.24-1.47.24Zm6.865-10.86h6.255v1.065h-4.95v3.645h3.99v1.065h-3.99v3.885h5.22V137H94.14v-10.725Zm9.422 0h3.225c.51 0 .99.055 1.44.165.46.11.86.285 1.2.525.34.24.61.55.81.93.2.37.3.825.3 1.365v.06c0 .44-.07.83-.21 1.17-.14.33-.33.615-.57.855-.24.23-.52.42-.84.57-.32.15-.665.26-1.035.33l3.285 4.755h-1.455l-3.195-4.665h-1.65V137h-1.305v-10.725Zm3.315 5.025c.77 0 1.355-.165 1.755-.495.4-.33.6-.825.6-1.485v-.06c0-.36-.055-.665-.165-.915-.11-.25-.265-.45-.465-.6a1.83 1.83 0 0 0-.75-.315 4.163 4.163 0 0 0-.975-.105h-2.01v3.975h2.01Zm10.348 5.835c-.72 0-1.33-.09-1.83-.27a3.58 3.58 0 0 1-1.215-.75 3.19 3.19 0 0 1-.735-1.08 5.084 5.084 0 0 1-.315-1.305h1.26c.04.32.11.625.21.915.1.28.255.53.465.75.21.21.485.38.825.51.35.12.795.18 1.335.18.34 0 .66-.045.96-.135.3-.1.56-.24.78-.42.22-.18.39-.395.51-.645.13-.25.195-.525.195-.825 0-.3-.04-.56-.12-.78-.08-.23-.22-.425-.42-.585-.19-.16-.455-.295-.795-.405a8 8 0 0 0-1.26-.285c-.56-.09-1.065-.205-1.515-.345-.44-.14-.815-.32-1.125-.54a2.27 2.27 0 0 1-.705-.84c-.16-.34-.24-.75-.24-1.23 0-.41.085-.79.255-1.14.17-.36.405-.67.705-.93.31-.26.675-.465 1.095-.615.42-.15.885-.225 1.395-.225 1.08 0 1.935.255 2.565.765.64.5 1.015 1.23 1.125 2.19h-1.17c-.13-.68-.395-1.165-.795-1.455-.4-.3-.975-.45-1.725-.45-.74 0-1.3.165-1.68.495-.37.32-.555.735-.555 1.245 0 .26.03.495.09.705.07.2.195.375.375.525.19.15.45.285.78.405a8.4 8.4 0 0 0 1.335.285c.6.09 1.125.21 1.575.36.45.15.83.345 1.14.585.31.24.54.535.69.885.16.35.24.78.24 1.29 0 .45-.095.87-.285 1.26a3.09 3.09 0 0 1-.765 1.005c-.33.28-.725.5-1.185.66-.45.16-.94.24-1.47.24Zm11.585-10.86h1.305v9.66h4.905V137h-6.21v-10.725Zm13.284 9.78c.6 0 1.135-.105 1.605-.315.48-.22.885-.52 1.215-.9.33-.39.585-.855.765-1.395.18-.54.27-1.135.27-1.785v-.12c0-.6-.09-1.165-.27-1.695-.17-.53-.42-.99-.75-1.38-.33-.39-.735-.7-1.215-.93-.48-.23-1.03-.345-1.65-.345-.62 0-1.175.11-1.665.33-.49.21-.905.51-1.245.9-.33.39-.585.855-.765 1.395a5.723 5.723 0 0 0-.255 1.755v.12c0 .65.1 1.245.3 1.785.21.53.49.99.84 1.38.36.38.78.675 1.26.885.48.21 1 .315 1.56.315Zm0 1.08c-.79 0-1.515-.14-2.175-.42-.65-.29-1.21-.68-1.68-1.17a5.364 5.364 0 0 1-1.08-1.725 5.92 5.92 0 0 1-.375-2.115v-.12c0-.76.125-1.47.375-2.13.26-.67.62-1.25 1.08-1.74a5.13 5.13 0 0 1 1.665-1.155c.65-.28 1.37-.42 2.16-.42s1.505.14 2.145.42c.64.28 1.19.665 1.65 1.155.46.49.815 1.065 1.065 1.725.25.66.375 1.365.375 2.115v.12c0 .76-.125 1.47-.375 2.13a5.33 5.33 0 0 1-1.065 1.74c-.45.49-.995.88-1.635 1.17-.64.28-1.35.42-2.13.42Zm6.96-10.86h1.29l3.195 9.465 3.195-9.465h1.23L154.259 137h-1.56l-3.645-10.725Zm11.64 0h6.255v1.065h-4.95v3.645h3.99v1.065h-3.99v3.885h5.22V137h-6.525v-10.725Zm17.907 10.86c-1.24 0-2.195-.345-2.865-1.035-.66-.7-.99-1.705-.99-3.015v-6.81h1.305v6.66c0 .56.05 1.04.15 1.44.1.39.255.71.465.96.21.25.475.435.795.555.33.11.72.165 1.17.165.43 0 .81-.05 1.14-.15.34-.1.625-.275.855-.525.24-.25.42-.585.54-1.005.13-.43.195-.975.195-1.635v-6.465h1.305v6.645c0 1.31-.335 2.34-1.005 3.09-.66.75-1.68 1.125-3.06 1.125Zm11.07 0c-.72 0-1.33-.09-1.83-.27a3.58 3.58 0 0 1-1.215-.75 3.19 3.19 0 0 1-.735-1.08 5.084 5.084 0 0 1-.315-1.305h1.26c.04.32.11.625.21.915.1.28.255.53.465.75.21.21.485.38.825.51.35.12.795.18 1.335.18.34 0 .66-.045.96-.135.3-.1.56-.24.78-.42.22-.18.39-.395.51-.645.13-.25.195-.525.195-.825 0-.3-.04-.56-.12-.78-.08-.23-.22-.425-.42-.585-.19-.16-.455-.295-.795-.405a8 8 0 0 0-1.26-.285c-.56-.09-1.065-.205-1.515-.345-.44-.14-.815-.32-1.125-.54a2.27 2.27 0 0 1-.705-.84c-.16-.34-.24-.75-.24-1.23 0-.41.085-.79.255-1.14.17-.36.405-.67.705-.93.31-.26.675-.465 1.095-.615.42-.15.885-.225 1.395-.225 1.08 0 1.935.255 2.565.765.64.5 1.015 1.23 1.125 2.19h-1.17c-.13-.68-.395-1.165-.795-1.455-.4-.3-.975-.45-1.725-.45-.74 0-1.3.165-1.68.495-.37.32-.555.735-.555 1.245 0 .26.03.495.09.705.07.2.195.375.375.525.19.15.45.285.78.405a8.4 8.4 0 0 0 1.335.285c.6.09 1.125.21 1.575.36.45.15.83.345 1.14.585.31.24.54.535.69.885.16.35.24.78.24 1.29 0 .45-.095.87-.285 1.26a3.09 3.09 0 0 1-.765 1.005c-.33.28-.725.5-1.185.66-.45.16-.94.24-1.47.24Z" fill="#000"/><g clip-path="url('#clip1_1_324')" fill-rule="evenodd" clip-rule="evenodd" fill="#000"><path d="m80.974 86-2.403 7.313H71l6.249 4.666-2.403 7.439 6.128-4.665 6.25 4.665-2.404-7.44 6.129-4.665h-7.571L80.974 86ZM107.294 86l-2.404 7.313H97.2l6.128 4.666-2.283 7.439 6.249-4.665 6.128 4.665-2.403-7.44 6.249-4.665h-7.691L107.294 86ZM134.572 86l-2.404 7.313h-7.57l6.249 4.666-2.404 7.439 6.129-4.665 6.249 4.665-2.404-7.44 6.129-4.665h-7.571L134.572 86ZM161.97 86l-2.283 7.313h-7.691l6.129 4.666-2.404 7.439 6.249-4.665 6.129 4.665-2.283-7.44 6.249-4.665h-7.691L161.97 86ZM188.166 86l-2.404 7.313h-7.571l6.129 4.666-2.283 7.439 6.129-4.665 6.249 4.665-2.404-7.44 6.129-4.665h-7.691L188.166 86Z"/></g><g clip-path="url('#clip2_1_324')" fill-rule="evenodd" clip-rule="evenodd" fill="#000"><path d="M311.48 55.36c.264-.132.528.132.66.396 0 0 .396 1.583.923 1.583 0 .264 0 .528-.263.66-.924.395-2.903.923-5.014.923-6.332 0-10.818-4.485-10.818-10.554 0-6.464 4.75-10.554 11.214-10.554.924 0 2.771.264 3.958.528.132.132.396.395.396.66v4.353c0 .264-.264.528-.528.528h-1.187c-.264 0-.396-.132-.528-.396l-.396-1.715c-.264-.924-1.055-1.32-2.638-1.32-4.486 0-5.937 3.563-5.937 7.256 0 4.222 1.979 8.18 6.992 8.18 1.055.132 2.507-.132 3.166-.528Zm10.027.924c1.583 0 2.638-1.188 2.638-2.375l-.132-2.375c0-.132 0-.264-.264-.264-3.43 0-4.617 1.188-4.617 2.903-.132 1.187.923 2.11 2.375 2.11Zm8.443.264c0-.264-.264-.396-.528-.396-.264.132-.527.132-.791.132-.66 0-.792-.396-.792-.924v-6.992c0-4.09-2.506-5.673-6.2-5.673-1.847 0-3.826.396-5.146.924-.263.132-.395.395-.263.66l.395 1.846c.132.396.396.396.66.264.923-.528 2.111-.791 3.298-.791 1.979 0 3.43.791 3.43 2.506v.528c0 .264-.132.528-.264.528-4.617 0-8.443 1.45-8.443 5.672 0 2.375 1.715 4.222 4.486 4.222 2.506 0 3.694-1.055 4.617-2.11h.132c.132 1.187.791 2.11 2.507 2.11.923 0 2.506-.264 2.77-.528.264-.132.264-.264.264-.527l-.132-1.452Zm10.158-10.819c-1.583 0-2.77.924-2.77 2.375v6.069c0 1.32.923 2.11 2.506 2.11 2.903 0 3.958-2.902 3.958-5.54-.132-2.507-1.187-5.014-3.694-5.014Zm-.396 18.734c.264 0 .528-.264.528-.528v-.791c0-.264-.132-.528-.396-.528l-1.847-.264c-.263-.132-.659-.396-.659-.923V58.13h.659c.396 0 .66.132 1.056.132 5.805 0 8.707-3.563 8.707-8.708 0-4.221-2.507-7.124-6.069-7.124-2.374 0-3.694 1.188-4.749 2.375h-.132l-.264-1.451c0-.264-.264-.66-.659-.528l-4.882.528c-.264 0-.527.264-.527.528v.791c0 .264.132.396.395.528l1.452.264c.527.132.659.66.659.923v15.435c0 .66-.264.924-.659.924l-1.188.396c-.264.132-.396.264-.396.528v.791c0 .264.264.528.528.528l8.443-.528Zm19.789-8.707c.396 0 .66.132.66.396l.528 1.583c0 .396 0 .528-.264.66-.924.527-2.639.791-3.826.791-3.034 0-5.145-1.715-5.145-4.75v-7.915c0-.264-.132-.396-.396-.396h-2.111c-.264 0-.264-.132-.264-.395l.132-1.715s.132-.264.264-.264h1.715c.396 0 .396-.264.396-.528v-1.979c0-.396.132-.66.528-.791l2.902-.924c.396-.132.528.132.528.528v3.166c0 .132.132.396.396.396h3.825c.132 0 .264.132.264.264v1.846s-.132.264-.264.264h-3.825c-.264 0-.528.132-.528.396v7.124c0 1.715.923 2.77 2.638 2.77.528-.131 1.188-.263 1.847-.527Zm11.61-8.575c0 2.11-2.111 2.77-4.09 2.77-.528 0-.923 0-1.187-.132-.264 0-.396-.132-.396-.396-.132-1.978.924-4.617 3.298-4.617 1.451 0 2.375 1.056 2.375 2.375Zm2.638 8.047c.264-.264.528 0 .66.264l.132 1.583c.132.264 0 .528-.264.66-1.187.791-3.034 1.187-4.749 1.187-5.277 0-8.048-3.298-8.048-8.18 0-4.617 3.562-8.047 7.916-8.047 2.902 0 5.805 1.583 5.805 4.618 0 3.562-3.694 4.88-6.861 4.88H366.23c-.264 0-.396.133-.396.397.264 2.374 2.638 3.825 4.617 3.825 1.451 0 2.507-.527 3.298-.923v-.264Zm11.874 3.43c.264 0 .527-.264.527-.527v-.792c0-.264-.131-.396-.395-.528l-1.847-.264c-.264 0-.66-.395-.66-.923v-6.86c0-1.583 1.319-2.507 2.771-2.507.659 0 1.319.132 1.846.264.264.132.66-.132.66-.264l.66-2.77c.132-.396 0-.66-.264-.66-.396-.264-.924-.264-1.319-.264-1.979 0-3.299 1.32-4.486 2.903h-.132l-.264-2.111c0-.396-.263-.66-.527-.66l-4.882.66c-.263 0-.527.264-.527.528v.791c0 .264.132.396.395.528l1.452.264c.527.132.659.66.659.923v9.499c0 .66-.264.923-.659.923l-1.32.264c-.263.132-.395.264-.395.528v.791c0 .264.263.528.527.528h8.18v-.264Zm13.852-.527c0 .263-.264.527-.528.527h-8.179c-.264 0-.528-.264-.528-.527v-.792c0-.264.132-.396.396-.528l1.319-.264c.396 0 .66-.395.66-.923v-9.499c0-.395-.132-.791-.66-.923l-1.451-.264c-.264-.132-.396-.264-.396-.528v-.791c0-.264.264-.528.528-.528l4.881-.66c.264 0 .528.264.528.66l.264 2.375h.132c1.187-1.583 2.638-2.903 4.485-2.903.396 0 .924 0 1.319.264.264 0 .396.264.264.66l-.659 2.77c0 .132-.396.396-.66.264-.528-.132-1.187-.264-1.847-.264-1.451 0-2.77.924-2.77 2.507v6.86c0 .66.395.923.659.923l1.847.264c.264.132.396.264.396.528v.792Zm13.588-4.222c0 1.187-.923 2.375-2.638 2.375-1.319 0-2.507-.924-2.507-2.243 0-1.715 1.188-2.902 4.618-2.902.264 0 .264.131.264.263l.263 2.507Zm5.277 2.243c.264 0 .528.132.528.395l.264 1.584c0 .263 0 .395-.264.527-.396.264-1.847.528-2.77.528-1.583 0-2.375-.792-2.507-2.11h-.132c-.923.923-2.243 2.11-4.617 2.11-2.771 0-4.486-1.847-4.486-4.222 0-4.221 3.826-5.672 8.444-5.672.131 0 .263-.264.263-.528v-.66c0-1.847-1.451-2.506-3.43-2.506-1.187 0-2.506.395-3.298.791-.264.132-.528.132-.66-.264l-.395-1.847c-.132-.264 0-.527.264-.66 1.319-.659 3.298-.923 5.145-.923 3.694 0 6.2 1.583 6.2 5.673v6.992c0 .66.264.924.924.924 0 0 .264 0 .527-.132ZM275.069 47.445h-5.277c-.132 0-.264-.132-.132-.132-.132 0-.132-.132-.132-.264l.132-.66c.132-.264.132-.396.132-.396 0-.132.131-.263.131-.395 0-.264.132-.528.264-.792 2.111-7.783 8.971-13.852 9.631-14.512.396-.132.528-.132.791 0 7.256 6.465 10.027 12.929 10.291 16.491v.396c0 .132-.132.396-.396.396h-5.409c-.132 0-.396 0-.396-.264a4.764 4.764 0 0 0-4.617-3.694c-2.243 0-4.09 1.583-4.618 3.694-.132 0-.132.132-.395.132Zm9.762 2.11h5.409s.264 0 0 .132c.132 0 .132.132.132.264l-.132.66c-.132.132-.132.264-.132.264 0 .132-.132.264-.132.395 0 .264-.132.528-.264.792-2.242 7.784-9.103 13.984-9.762 14.644-.264.132-.396.132-.66 0-7.124-6.465-10.026-12.929-10.29-16.49v-.397c0-.132.132-.396.396-.396h5.409c.132 0 .396 0 .396.264a4.764 4.764 0 0 0 4.617 3.694c2.243 0 4.09-1.583 4.617-3.694 0 0 .132-.131.396-.131Z"/></g><path d="M270.44 127.275h1.305v4.86h5.64v-4.86h1.305V138h-1.305v-4.77h-5.64V138h-1.305v-10.725Zm11.958 0h1.305V138h-1.305v-10.725Zm9.676 10.86c-.83 0-1.565-.135-2.205-.405a4.73 4.73 0 0 1-1.635-1.125 5.024 5.024 0 0 1-1.005-1.725 6.656 6.656 0 0 1-.345-2.175v-.12c0-.78.125-1.505.375-2.175a5.13 5.13 0 0 1 1.065-1.74 4.82 4.82 0 0 1 1.635-1.14 5.22 5.22 0 0 1 2.115-.42c.53 0 1.04.065 1.53.195a4 4 0 0 1 1.32.615c.4.27.73.62.99 1.05.27.43.445.945.525 1.545h-1.305c-.15-.85-.5-1.455-1.05-1.815-.54-.37-1.2-.555-1.98-.555-.62 0-1.17.11-1.65.33-.48.21-.885.51-1.215.9-.33.39-.58.855-.75 1.395-.17.54-.255 1.14-.255 1.8v.12c0 .66.08 1.265.24 1.815.17.54.415 1 .735 1.38.32.38.72.675 1.2.885.48.21 1.035.315 1.665.315.58 0 1.08-.09 1.5-.27.42-.18.765-.42 1.035-.72.28-.31.485-.67.615-1.08.14-.42.215-.87.225-1.35h-3.135v-1.08h4.41v.795c0 .78-.115 1.465-.345 2.055a3.984 3.984 0 0 1-.945 1.485c-.41.4-.9.705-1.47.915-.57.2-1.2.3-1.89.3Zm7.774-10.86h1.305v4.86h5.64v-4.86h1.305V138h-1.305v-4.77h-5.64V138h-1.305v-10.725Zm11.883 0h6.255v1.065h-4.95v3.645h3.99v1.065h-3.99v3.885h5.22V138h-6.525v-10.725Zm12.887 10.86c-.72 0-1.33-.09-1.83-.27a3.58 3.58 0 0 1-1.215-.75 3.19 3.19 0 0 1-.735-1.08 5.084 5.084 0 0 1-.315-1.305h1.26c.04.32.11.625.21.915.1.28.255.53.465.75.21.21.485.38.825.51.35.12.795.18 1.335.18.34 0 .66-.045.96-.135.3-.1.56-.24.78-.42.22-.18.39-.395.51-.645.13-.25.195-.525.195-.825 0-.3-.04-.56-.12-.78-.08-.23-.22-.425-.42-.585-.19-.16-.455-.295-.795-.405a8 8 0 0 0-1.26-.285c-.56-.09-1.065-.205-1.515-.345-.44-.14-.815-.32-1.125-.54a2.27 2.27 0 0 1-.705-.84c-.16-.34-.24-.75-.24-1.23 0-.41.085-.79.255-1.14.17-.36.405-.67.705-.93.31-.26.675-.465 1.095-.615.42-.15.885-.225 1.395-.225 1.08 0 1.935.255 2.565.765.64.5 1.015 1.23 1.125 2.19h-1.17c-.13-.68-.395-1.165-.795-1.455-.4-.3-.975-.45-1.725-.45-.74 0-1.3.165-1.68.495-.37.32-.555.735-.555 1.245 0 .26.03.495.09.705.07.2.195.375.375.525.19.15.45.285.78.405a8.4 8.4 0 0 0 1.335.285c.6.09 1.125.21 1.575.36.45.15.83.345 1.14.585.31.24.54.535.69.885.16.35.24.78.24 1.29 0 .45-.095.87-.285 1.26a3.09 3.09 0 0 1-.765 1.005c-.33.28-.725.5-1.185.66-.45.16-.94.24-1.47.24Zm8.689-9.795h-3.12v-1.065h7.545v1.065h-3.12V138h-1.305v-9.66Zm11.863-1.065h3.225c.51 0 .99.055 1.44.165.46.11.86.285 1.2.525.34.24.61.55.81.93.2.37.3.825.3 1.365v.06c0 .44-.07.83-.21 1.17-.14.33-.33.615-.57.855-.24.23-.52.42-.84.57-.32.15-.665.26-1.035.33l3.285 4.755h-1.455l-3.195-4.665h-1.65V138h-1.305v-10.725Zm3.315 5.025c.77 0 1.355-.165 1.755-.495.4-.33.6-.825.6-1.485v-.06c0-.36-.055-.665-.165-.915-.11-.25-.265-.45-.465-.6a1.83 1.83 0 0 0-.75-.315 4.163 4.163 0 0 0-.975-.105h-2.01v3.975h2.01Zm9.91-5.025h1.71l3.63 10.725h-1.29l-1.05-3.09h-4.425l-1.035 3.09h-1.23l3.69-10.725Zm-1.065 6.6h3.72l-1.86-5.52-1.86 5.52Zm10.369-5.535h-3.12v-1.065h7.545v1.065h-3.12V138h-1.305v-9.66Zm7.143-1.065h6.255v1.065h-4.95v3.645h3.99v1.065h-3.99v3.885h5.22V138h-6.525v-10.725Zm12.197 9.66c.69 0 1.29-.1 1.8-.3.52-.2.95-.485 1.29-.855.35-.37.61-.815.78-1.335.18-.53.27-1.125.27-1.785v-.12c0-.62-.08-1.185-.24-1.695a3.286 3.286 0 0 0-.735-1.335c-.33-.38-.76-.67-1.29-.87-.52-.21-1.15-.315-1.89-.315h-1.455v8.61h1.47Zm-2.775-9.66h2.835c.92 0 1.72.135 2.4.405.68.27 1.245.64 1.695 1.11a4.48 4.48 0 0 1 1.005 1.665c.22.64.33 1.335.33 2.085v.135c0 .74-.11 1.435-.33 2.085-.21.65-.54 1.215-.99 1.695-.45.48-1.02.86-1.71 1.14-.68.27-1.49.405-2.43.405h-2.805v-10.725Z" fill="#000"/><g clip-path="url('#clip3_1_324')" fill-rule="evenodd" clip-rule="evenodd" fill="#000"><path d="m278.974 87-2.403 7.313H269l6.249 4.666-2.404 7.439 6.129-4.665 6.249 4.665-2.403-7.44 6.128-4.665h-7.57L278.974 87ZM305.294 87l-2.404 7.313h-7.691l6.129 4.666-2.283 7.439 6.249-4.665 6.128 4.665-2.403-7.44 6.249-4.665h-7.691L305.294 87ZM332.572 87l-2.404 7.313h-7.57l6.249 4.666-2.404 7.439 6.129-4.665 6.249 4.665-2.404-7.44 6.129-4.665h-7.571L332.572 87ZM359.97 87l-2.283 7.313h-7.691l6.129 4.666-2.404 7.439 6.249-4.665 6.129 4.665-2.283-7.44 6.249-4.665h-7.691L359.97 87ZM386.166 87l-2.404 7.313h-7.571l6.129 4.666-2.283 7.439 6.129-4.665 6.249 4.665-2.404-7.44 6.129-4.665h-7.691L386.166 87Z"/></g><defs><clipPath id="clip0_1_324"><path fill="#fff" transform="translate(71 30)" d="M0 0h128v36H0z"/></clipPath><clipPath id="clip1_1_324"><path fill="#fff" transform="translate(71 86)" d="M0 0h128v20H0z"/></clipPath><clipPath id="clip2_1_324"><path fill="#fff" transform="translate(269 30)" d="M0 0h150v37H0z"/></clipPath><clipPath id="clip3_1_324"><path fill="#fff" transform="translate(269 87)" d="M0 0h128v20H0z"/></clipPath></defs></svg>